<svg width="270" height="42" viewBox="0 0 270 42" fill="none" xmlns="http://www.w3.org/2000/svg">
<path d="M44.544 38.0482L44.95 39.2082H43.964L44.08 39.4982C44.08 39.5368 44.08 39.5948 44.08 39.6722C44.1187 39.7108 44.138 39.7495 44.138 39.7882H43.79V39.9042C43.79 40.3682 43.616 40.7162 43.268 40.9482H43.326C43.1327 41.1028 42.8814 41.1802 42.572 41.1802H31.842C31.5713 41.1802 31.3393 41.1608 31.146 41.1222C30.9913 41.0448 30.8173 40.9868 30.624 40.9482C30.3147 40.7935 30.0827 40.6195 29.928 40.4262C29.7733 40.1942 29.6573 39.9815 29.58 39.7882H29.87V39.7302L29.754 39.4982L29.638 39.2082H30.624L30.218 38.0482H29.116L28.942 37.4682H31.32L30.914 36.3082H30.218L30.044 35.9022H17.574L17.458 36.3082H16.762L16.356 37.4682H15.718L15.486 38.0482H15.138L14.732 39.2082H14.79L14.674 39.4982L14.616 39.7302L14.558 39.7882H14.268C14.1907 39.9815 14.0747 40.1942 13.92 40.4262C13.7653 40.6195 13.5333 40.7935 13.224 40.9482H14.964C14.8093 40.9868 14.6353 41.0448 14.442 41.1222C14.2487 41.1608 14.0167 41.1802 13.746 41.1802H3.01601C2.70668 41.1802 2.47468 41.1028 2.32001 40.9482H0.580014C0.193347 40.6775 1.39133e-05 40.3295 1.39133e-05 39.9042V39.7882H0.348014C0.348014 39.6722 0.367347 39.5755 0.406014 39.4982L0.464014 39.2082H0.406014L0.812014 38.0482H1.16001L1.39201 37.4682H2.03001L2.43601 36.3082H3.07401L3.48001 35.1482H1.21801L1.45001 34.5682H1.27601L1.56601 33.6982H2.14601L2.26201 33.4082H0.986014L1.39201 32.2482H3.36401L3.53801 31.6682H1.74001L1.85601 31.3782H2.14601L2.55201 30.2182H2.37801L2.66801 29.3482H2.90001L3.30601 28.1882H4.06001L4.35001 27.3182L4.46601 27.0282H7.36601L7.48201 26.7382H7.30801L7.59801 25.8682H4.35001L4.75601 24.7082H5.80001L5.91601 24.4182H5.27801L5.39401 24.1282H7.25001L7.65601 22.9682H5.39401L5.62601 22.3882H6.49601L6.90201 21.2282H6.38001L6.67001 20.3582H7.30801L7.71401 19.1982H7.54001L7.65601 18.9082H6.32201L6.55401 18.3282H7.83001L8.12001 17.4582H7.54001L7.59801 17.1682H8.64201L9.04801 16.0082H7.77201L8.06201 15.1382H7.42401L7.59801 14.5582H3.59601L3.77001 13.9782H3.01601L3.42201 12.8182H2.66801L3.01601 11.9482H5.27801L5.68401 10.7882H11.484L11.774 9.91817H8.99001L9.22201 9.33817H11.368L11.774 8.17818H9.86001L10.15 7.30817H11.368L11.774 6.14817H11.6L12.006 4.98818H10.382L10.44 4.69818H16.008L16.414 3.53817H16.24L16.356 3.24817H14.326L14.558 2.49417L14.732 2.08817H15.312L15.66 1.50817H15.486C15.6793 1.23751 15.95 1.02484 16.298 0.870173C16.646 0.67684 17.0713 0.580173 17.574 0.580173H30.16C30.6627 0.580173 31.088 0.67684 31.436 0.870173C31.784 1.02484 32.0547 1.23751 32.248 1.50817H32.48L32.828 2.08817H32.248C32.3253 2.24284 32.364 2.37817 32.364 2.49417L32.654 3.24817H34.684L34.742 3.53817H34.916L35.322 4.69818H29.812L29.928 4.98818H31.552L31.958 6.14817H32.132L32.538 7.30817H31.32L31.61 8.17818H33.524L33.93 9.33817H31.784L32.016 9.91817H34.8L35.09 10.7882H29.29L29.696 11.9482H27.434L27.724 12.8182H28.42L28.826 13.9782H26.564L26.796 14.5582H36.018L36.192 15.1382H35.728L36.018 16.0082H34.858L35.264 17.1682H33.872L33.93 17.4582H36.018L36.308 18.3282H36.366L36.598 18.9082H34.684L34.8 19.1982H36.656L37.062 20.3582H37.7L37.99 21.2282H37.816L38.222 22.3882H39.15L39.382 22.9682H37.7L38.106 24.1282H39.266L39.324 24.4182H39.034L39.15 24.7082H38.106L38.454 25.8682H41.76L42.05 26.7382H42.224L42.34 27.0282H39.382L39.498 27.3182H39.556L39.846 28.1882H39.092L39.498 29.3482H39.208L39.556 30.2182H39.73L40.136 31.3782H39.846L39.962 31.6682H41.76L41.992 32.2482H39.962L40.368 33.4082H41.644L41.76 33.6982H41.18L41.528 34.5682H41.644L41.876 35.1482H44.138L44.544 36.3082H45.24L45.646 37.4682H43.268L43.442 38.0482H44.544ZM20.3 15.1382H20.996L20.706 16.0082H23.084L22.794 15.1382H23.258L23.084 14.5582H20.474L20.3 15.1382ZM22.214 17.1682L21.924 16.1822L21.634 17.1682H22.214ZM18.734 24.1282L18.618 24.4182H19.256L19.198 24.5922H25.752L25.694 24.4182H25.984L25.926 24.1282H24.766L24.418 22.9682H26.1L25.926 22.3882H24.94L24.592 21.2282H24.766L24.534 20.3582H23.896L23.548 19.1982H21.692L21.576 18.9082H23.49L23.316 18.3282H23.258L22.968 17.4582H21.112L20.88 18.3282H19.604L19.43 18.9082H20.706L20.648 19.1982H20.822L20.474 20.3582H19.836L19.546 21.2282H20.068L19.72 22.3882H18.85L18.676 22.9682H20.938L20.59 24.1282H18.734ZM80.214 17.1682H79.228V18.0382H79.46V18.9082H80.736V19.4882H80.04V20.6482H79.866V20.9382H80.098V22.0982H79.17V22.6782H77.314V23.2582H78.706V24.1282H79.634V24.7082H79.924V25.8682H80.098V27.6082H80.04V28.4782H79.924V29.6382H81.722V30.5082H78.938V31.9582H80.156V32.2482H80.62V32.5382H79.17V33.4082H78.764V34.5682H80.156V35.7282H79.75V36.5982H80.156V37.1782H80.04V38.3382H79.982V39.4982H80.098V39.7882H80.04C79.9627 40.1748 79.8273 40.4648 79.634 40.6582H80.62C80.388 41.0062 80.0013 41.1802 79.46 41.1802H69.31C68.846 41.1802 68.4593 41.0062 68.15 40.6582H67.164C66.9707 40.4648 66.8353 40.1748 66.758 39.7882H66.816V39.4982H66.7V38.3382H66.758V37.7002C66.642 37.9322 66.4873 38.1448 66.294 38.3382H66.41C66.0233 38.8022 65.6173 39.1888 65.192 39.4982H65.076C65.0373 39.5368 64.9793 39.5755 64.902 39.6142C64.8247 39.6528 64.7473 39.7108 64.67 39.7882H64.554C64.0513 40.1362 63.5293 40.4262 62.988 40.6582H63.974C63.046 41.0835 62.0407 41.3735 60.958 41.5282H60.204C59.74 41.6055 59.2567 41.6635 58.754 41.7022C58.29 41.7408 57.7873 41.7602 57.246 41.7602C56.8593 41.7602 56.4727 41.7408 56.086 41.7022C55.6993 41.6635 55.2933 41.6055 54.868 41.5282H55.622C54.694 41.3348 53.824 41.0448 53.012 40.6582H52.026C51.446 40.3875 50.9433 40.0975 50.518 39.7882H50.692C50.6533 39.7108 50.5953 39.6528 50.518 39.6142C50.4407 39.5755 50.3633 39.5368 50.286 39.4982H50.402C50.2087 39.3048 49.996 39.1115 49.764 38.9182C49.5707 38.7248 49.3773 38.5315 49.184 38.3382H49.068C48.9133 38.1448 48.7587 37.9515 48.604 37.7582C48.4493 37.5648 48.2947 37.3715 48.14 37.1782H48.256C48.2173 37.1008 48.1593 37.0042 48.082 36.8882C48.0047 36.7722 47.9273 36.6755 47.85 36.5982H47.444C47.4053 36.4435 47.328 36.3082 47.212 36.1922C47.1347 36.0375 47.0573 35.8828 46.98 35.7282H47.444C47.2507 35.3028 47.096 34.9162 46.98 34.5682H45.588C45.5493 34.3748 45.4913 34.1815 45.414 33.9882C45.3367 33.7948 45.2787 33.6015 45.24 33.4082H45.588L45.414 32.5382H46.864C46.8253 32.4608 46.806 32.3642 46.806 32.2482H46.284C46.284 32.1322 46.2647 32.0355 46.226 31.9582H45.066C45.0273 31.8808 45.008 31.7842 45.008 31.6682C45.008 31.5522 44.9887 31.4555 44.95 31.3782H48.024C47.9853 31.2235 47.966 31.0882 47.966 30.9722C47.966 30.8175 47.9467 30.6628 47.908 30.5082H47.212C47.1733 30.3535 47.154 30.2182 47.154 30.1022C47.154 29.9475 47.154 29.7928 47.154 29.6382H46.168V28.4782H45.82V27.6082H45.646V27.0282H45.762V24.7082H45.53V24.1282H45.008V23.2582H45.646V22.6782H46.052V22.0982H46.11V20.9382H45.878V20.6482H46.052V19.4882H47.154V18.9082H46.11V18.0382H45.762V17.1682H45.588V16.0082H47.038V15.4282H48.082V14.8482H47.502V14.2682H46.226V13.9782H45.878V13.3982H45.82V12.5862C45.82 12.5088 45.82 12.4508 45.82 12.4122C45.8587 12.3348 45.878 12.2768 45.878 12.2382H45.82C45.9747 11.4262 46.4773 11.0202 47.328 11.0202H58.406C59.2953 11.0202 59.798 11.4262 59.914 12.2382H60.03V13.3982H60.088V13.9782H60.436V14.2682H61.712V14.8482H62.292V15.4282H61.248V16.0082H59.798V17.1682H59.972V18.0382H60.32V18.9082H61.364V19.4882H60.262V20.6482H60.088V20.9382H60.32V22.0982H60.262V22.6782H59.856V23.2582H59.218V24.1282H59.74V24.7082H59.972V27.0282H59.856V27.6082H60.03V28.1882C60.03 28.3042 60.0493 28.4008 60.088 28.4782H60.378C60.378 28.9035 60.436 29.2902 60.552 29.6382H61.538C61.654 29.9475 61.8087 30.2375 62.002 30.5082H62.756C62.9493 30.7402 63.1813 30.9142 63.452 31.0302C63.7227 30.9142 63.9353 30.7402 64.09 30.5082H66.874C67.0673 30.2375 67.222 29.9475 67.338 29.6382H65.598C65.714 29.2902 65.772 28.9035 65.772 28.4782H65.888V27.6082H65.946V25.8682H65.772V24.7082H65.482V24.1282H64.554V23.2582H63.162V22.6782H65.018V22.0982H65.946V20.9382H65.714V20.6482H65.888V19.4882H66.584V18.9082H65.308V18.0382H65.076V17.1682H66.062V16.0082H67.28V15.4282H68.788V14.8482H66.874V14.2682H65.888V13.9782H65.656V13.3982H65.888V12.5862C65.888 12.4315 65.9073 12.3155 65.946 12.2382H65.54C65.7333 11.4262 66.2553 11.0202 67.106 11.0202H78.126C78.938 11.0202 79.4407 11.4262 79.634 12.2382H79.982C80.0207 12.3155 80.04 12.4315 80.04 12.5862V13.3982H79.808V13.9782H80.04V14.2682H81.026V14.8482H82.94V15.4282H81.432V16.0082H80.214V17.1682ZM112.8 34.5682H111.408V35.1482H113.496V35.7282H115.41V36.5982H114.076V37.4682H117.962V38.3382H111.64V39.4982H112.104V39.6142C112.104 39.6915 112.085 39.7495 112.046 39.7882C111.969 40.1748 111.833 40.4648 111.64 40.6582H111.176C111.021 40.8128 110.905 40.9095 110.828 40.9482H112.8C112.607 41.1028 112.336 41.1802 111.988 41.1802H105.434C104.777 41.1802 104.119 41.1608 103.462 41.1222C102.843 41.0835 102.244 41.0255 101.664 40.9482H99.692C99.4214 40.9095 99.1507 40.8708 98.88 40.8322C98.6094 40.7548 98.3194 40.6968 98.01 40.6582H98.474C97.9714 40.5422 97.488 40.4068 97.024 40.2522C96.5987 40.0975 96.1734 39.9428 95.748 39.7882H95.806C95.69 39.7108 95.574 39.6528 95.458 39.6142C95.342 39.5755 95.2454 39.5368 95.168 39.4982H94.704C94.3947 39.3048 94.0854 39.1308 93.776 38.9762C93.4667 38.7828 93.1574 38.5702 92.848 38.3382H99.228C99.0734 38.1835 98.8994 38.0482 98.706 37.9322C98.5514 37.7775 98.3967 37.6228 98.242 37.4682H94.356L93.602 36.5982H94.994C94.878 36.4435 94.762 36.3082 94.646 36.1922C94.5687 36.0375 94.4914 35.8828 94.414 35.7282H92.5L92.152 35.1482H90.064C90.0254 35.0708 89.9867 34.9742 89.948 34.8582C89.9094 34.7422 89.8514 34.6455 89.774 34.5682H91.224L90.876 33.6982H92.036L91.862 33.1182C91.7847 32.8862 91.746 32.6928 91.746 32.5382H96.328C96.2894 32.3835 96.2507 32.2482 96.212 32.1322C96.212 31.9775 96.212 31.8228 96.212 31.6682H89.6C89.6 31.5908 89.5807 31.5328 89.542 31.4942C89.542 31.4555 89.542 31.4168 89.542 31.3782H89.368C89.368 31.2235 89.3487 31.0882 89.31 30.9722C89.31 30.8175 89.31 30.6628 89.31 30.5082H89.136C89.136 30.3535 89.1167 30.2182 89.078 30.1022C89.078 29.9475 89.078 29.7928 89.078 29.6382H89.89V29.3482H89.368V28.7682H88.904V27.6082H89.6V26.4482H88.904V25.5782H89.426V24.9982H89.484V24.1282H89.774V22.0982H89.89V21.2282H90.18V21.1702H85.598C85.018 21.1702 84.554 20.8995 84.206 20.3582H85.076C84.96 20.1262 84.902 19.8748 84.902 19.6042V19.1982H83.046V18.3282H83.452V17.1682H83.162V16.5882H83.278V16.0082H84.148V15.7182H82.698V14.8482H84.438V13.9782H84.09V13.3982H83.684V12.5282H83.336V12.2382H83.162C83.278 11.6582 83.6454 11.2715 84.264 11.0782H84.612C84.728 11.0395 84.8827 11.0202 85.076 11.0202H89.658V10.7882H89.89V9.91817H89.426V9.33817H89.368V8.46818H89.136V8.17818H87.744V7.59817H86.41V7.30817H86.874V7.01817H88.208V5.85817H88.73V5.27817H86.874V4.69818H89.716V3.82817H89.426V3.53817H88.788V2.95817H89.368V2.66817H88.788V1.79817H89.31V1.56617C89.31 1.37284 89.3487 1.16017 89.426 0.928175H90.18C90.4507 0.309508 90.934 0.000173569 91.63 0.000173569H101.78C102.399 0.000173569 102.882 0.309508 103.23 0.928175H102.476C102.553 1.16017 102.592 1.37284 102.592 1.56617V1.79817H102.07V2.66817H102.65V2.95817H102.07V3.53817H102.708V3.82817H102.998V4.69818H100.156V5.27817H102.012V5.85817H101.49V7.01817H100.156V7.30817H99.692V7.59817H101.026V8.17818H102.418V8.46818H102.65V9.33817H102.708V9.91817H103.172V10.7882H102.94V11.0202H110.248C110.441 11.0202 110.577 11.0395 110.654 11.0782H110.306C110.847 11.2715 111.215 11.6582 111.408 12.2382H111.582C111.582 12.2768 111.582 12.3155 111.582 12.3542C111.621 12.3928 111.64 12.4508 111.64 12.5282H111.988V13.3982H112.394V13.9782H112.742V14.8482H111.002V15.7182H112.452V16.0082H111.582V16.5882H111.466V17.1682H111.756V18.3282H111.35V19.1982H113.206V19.6042C113.206 19.7588 113.187 19.8942 113.148 20.0102C113.109 20.1262 113.051 20.2422 112.974 20.3582H112.162C111.814 20.8995 111.35 21.1702 110.77 21.1702H103.462V21.2282H103.172V22.0982H103.056V24.1282H102.766V24.9982H102.708V25.5782H102.186V26.4482H102.882V27.6082H102.186C102.186 27.8015 102.186 27.9948 102.186 28.1882C102.225 28.3815 102.263 28.5748 102.302 28.7682H102.824C102.901 29.0002 102.979 29.1935 103.056 29.3482H103.52L103.694 29.6382H102.882C103.307 30.1795 103.965 30.4502 104.854 30.4502H110.132C110.325 30.4502 110.461 30.4695 110.538 30.5082H110.712C111.176 30.6242 111.505 30.9142 111.698 31.3782H111.872C111.872 31.4168 111.872 31.4555 111.872 31.4942C111.911 31.5328 111.93 31.5908 111.93 31.6682H118.542C118.542 31.7068 118.542 31.7648 118.542 31.8422C118.581 31.8808 118.6 31.9388 118.6 32.0162V32.5382H113.96V33.6982H112.8V34.5682ZM153.761 24.4182C153.8 24.6115 153.819 24.8048 153.819 24.9982C153.819 25.1915 153.819 25.3848 153.819 25.5782H149.701V26.1582H147.323V26.7382H149.585V27.0282H146.975V27.8982H145.525V28.1882H148.773C148.773 28.3042 148.754 28.4008 148.715 28.4782H148.541V28.7682H149.063V28.8262C149.063 28.9808 149.044 29.1548 149.005 29.3482C149.005 29.5415 148.986 29.7348 148.947 29.9282H148.541L148.367 31.0882H149.237C149.237 31.2428 149.199 31.4362 149.121 31.6682H148.947C148.909 31.8228 148.87 31.9775 148.831 32.1322C148.793 32.2482 148.754 32.3835 148.715 32.5382H149.179C149.141 32.7315 149.083 32.9248 149.005 33.1182C148.928 33.3115 148.851 33.5048 148.773 33.6982H147.903L147.671 34.2782H147.787C147.71 34.4328 147.671 34.5295 147.671 34.5682H147.439C147.285 34.9548 147.072 35.3415 146.801 35.7282H146.917C146.879 35.8055 146.821 35.9022 146.743 36.0182C146.666 36.1342 146.589 36.2308 146.511 36.3082H146.453L145.757 37.1782C145.719 37.2168 145.68 37.2555 145.641 37.2942C145.603 37.3328 145.545 37.3908 145.467 37.4682H145.177C145.023 37.6228 144.868 37.7775 144.713 37.9322C144.559 38.0482 144.385 38.1835 144.191 38.3382H142.451L141.233 39.2082H141.465C141.388 39.2468 141.311 39.2855 141.233 39.3242C141.156 39.3628 141.079 39.4208 141.001 39.4982H140.595C140.518 39.5368 140.421 39.5755 140.305 39.6142C140.189 39.6528 140.093 39.7108 140.015 39.7882H143.147C142.954 39.9042 142.741 40.0202 142.509 40.1362C142.277 40.2135 142.045 40.2908 141.813 40.3682H140.827C140.557 40.4842 140.267 40.6002 139.957 40.7162C139.648 40.7935 139.339 40.8708 139.029 40.9482H139.261C138.797 41.0642 138.314 41.1608 137.811 41.2382C137.309 41.3542 136.787 41.4508 136.245 41.5282H138.043C137.425 41.6055 136.787 41.6635 136.129 41.7022C135.472 41.7408 134.795 41.7602 134.099 41.7602C133.365 41.7602 132.669 41.7408 132.011 41.7022C131.393 41.6635 130.755 41.6055 130.097 41.5282H128.241C127.739 41.4508 127.217 41.3542 126.675 41.2382C126.173 41.1608 125.689 41.0642 125.225 40.9482H125.051C124.742 40.8708 124.433 40.7935 124.123 40.7162C123.853 40.6002 123.563 40.4842 123.253 40.3682H124.181C123.988 40.2908 123.775 40.2135 123.543 40.1362C123.311 40.0202 123.099 39.9042 122.905 39.7882H119.773L119.251 39.4982H119.657L119.135 39.2082H118.903C118.439 38.8988 118.033 38.6088 117.685 38.3382H119.425C119.271 38.1835 119.116 38.0482 118.961 37.9322C118.807 37.7775 118.652 37.6228 118.497 37.4682H118.787C118.749 37.3908 118.71 37.3328 118.671 37.2942C118.633 37.2555 118.575 37.2168 118.497 37.1782L117.801 36.3082H117.859L117.453 35.7282H117.337C117.067 35.3415 116.854 34.9548 116.699 34.5682H116.873C116.796 34.4135 116.757 34.3168 116.757 34.2782H116.583L116.351 33.6982H117.221C117.183 33.5048 117.125 33.3115 117.047 33.1182C116.97 32.9248 116.893 32.7315 116.815 32.5382H116.351C116.313 32.3835 116.274 32.2482 116.235 32.1322C116.197 31.9775 116.158 31.8228 116.119 31.6682H115.771L115.597 31.0882H115.017L114.843 29.9282H115.423C115.385 29.7348 115.346 29.5415 115.307 29.3482C115.307 29.1548 115.307 28.9808 115.307 28.8262V28.7682H114.263V28.4782H113.973C113.973 28.4008 113.954 28.3428 113.915 28.3042C113.915 28.2655 113.915 28.2268 113.915 28.1882H117.163C117.163 28.0722 117.144 27.9755 117.105 27.8982H113.857V27.0282H115.249V26.7382H115.945V26.1582H117.163V25.5782H113.625C113.625 25.3848 113.625 25.1915 113.625 24.9982C113.625 24.8048 113.645 24.6115 113.683 24.4182H112.929V23.8382H118.671C118.71 23.7222 118.729 23.5675 118.729 23.3742V22.9682H117.163C117.163 22.8135 117.163 22.6782 117.163 22.5622C117.202 22.4075 117.221 22.2528 117.221 22.0982H117.801L117.975 20.9382H116.061C116.1 20.7835 116.139 20.6482 116.177 20.5322C116.216 20.3775 116.255 20.2228 116.293 20.0682H115.887C115.965 19.8748 116.023 19.6815 116.061 19.4882C116.139 19.2562 116.216 19.0628 116.293 18.9082H116.351C116.39 18.8308 116.429 18.7342 116.467 18.6182C116.506 18.5022 116.545 18.4055 116.583 18.3282H116.525C116.525 18.2895 116.564 18.1928 116.641 18.0382H116.931C117.086 17.6515 117.299 17.2648 117.569 16.8782H116.409L116.757 16.2982H118.903C118.942 16.2208 119.019 16.1242 119.135 16.0082H114.901C114.979 15.8535 115.075 15.7182 115.191 15.6022C115.346 15.4475 115.481 15.2928 115.597 15.1382H116.931C117.125 14.9448 117.318 14.7515 117.511 14.5582C117.743 14.3262 117.956 14.1328 118.149 13.9782H120.817C121.165 13.6688 121.571 13.3788 122.035 13.1082H123.137C123.292 12.9922 123.447 12.8955 123.601 12.8182C123.795 12.7022 123.969 12.6055 124.123 12.5282H120.701C121.049 12.3348 121.475 12.1415 121.977 11.9482H123.543C124.433 11.6002 125.361 11.3102 126.327 11.0782H124.587C126.482 10.6528 128.493 10.4402 130.619 10.4402C132.746 10.4402 134.757 10.6528 136.651 11.0782H138.449C139.416 11.3102 140.325 11.6002 141.175 11.9482H139.551C140.054 12.1415 140.479 12.3348 140.827 12.5282H144.249C144.443 12.6055 144.617 12.7022 144.771 12.8182C144.965 12.8955 145.139 12.9922 145.293 13.1082H144.191L145.409 13.9782H142.741C142.973 14.1328 143.186 14.3262 143.379 14.5582C143.611 14.7515 143.824 14.9448 144.017 15.1382H142.683C142.799 15.2928 142.915 15.4475 143.031 15.6022C143.186 15.7182 143.302 15.8535 143.379 16.0082H147.671L147.845 16.2982H145.757L146.105 16.8782H147.265C147.536 17.2648 147.749 17.6515 147.903 18.0382H147.613C147.691 18.1928 147.729 18.2895 147.729 18.3282H147.845L148.077 18.9082H148.019C148.097 19.0628 148.174 19.2562 148.251 19.4882C148.329 19.6815 148.387 19.8748 148.425 20.0682H149.005L149.179 20.9382H148.831C148.909 21.0928 148.947 21.2862 148.947 21.5182C148.986 21.7115 149.025 21.9048 149.063 22.0982H149.527C149.566 22.2528 149.585 22.4075 149.585 22.5622C149.585 22.6782 149.605 22.8135 149.643 22.9682H147.381V23.3742C147.381 23.5675 147.401 23.7222 147.439 23.8382H146.279V24.4182H153.761ZM131.489 22.0982C131.451 22.2528 131.412 22.4075 131.373 22.5622C131.373 22.6782 131.373 22.8135 131.373 22.9682H132.997C132.959 23.0842 132.939 23.2002 132.939 23.3162C132.939 23.4322 132.939 23.5482 132.939 23.6642V23.8382H133.171V23.6642C133.171 23.5482 133.152 23.4322 133.113 23.3162C133.113 23.2002 133.113 23.0842 133.113 22.9682H135.375C135.375 22.8135 135.356 22.6782 135.317 22.5622C135.317 22.4075 135.317 22.2528 135.317 22.0982H134.853C134.815 21.8662 134.757 21.6535 134.679 21.4602C134.641 21.2668 134.583 21.0928 134.505 20.9382H134.911C134.757 20.5902 134.525 20.3002 134.215 20.0682H133.635C133.249 19.8362 132.746 19.7202 132.127 19.7202C131.509 19.7202 131.025 19.8362 130.677 20.0682H131.083C130.929 20.1842 130.793 20.3195 130.677 20.4742C130.561 20.5902 130.465 20.7448 130.387 20.9382H132.301C132.263 21.0928 132.205 21.2668 132.127 21.4602C132.089 21.6535 132.05 21.8662 132.011 22.0982H131.489ZM135.433 25.5782H139.551V24.4182H132.069C132.031 24.2635 132.011 24.0702 132.011 23.8382H127.197C127.197 24.0702 127.178 24.2635 127.139 24.4182H127.893V25.5782H131.431V26.1582H130.155V26.7382H129.459V27.0282H128.067C128.067 27.1828 128.067 27.3375 128.067 27.4922C128.106 27.6082 128.125 27.7435 128.125 27.8982H132.707V27.0282H135.317V26.7382H133.055V26.1582H135.433V25.5782ZM134.505 28.4782V28.1882H128.183V28.4782H128.473V28.5362C128.473 28.5748 128.473 28.6135 128.473 28.6522C128.512 28.6908 128.531 28.7295 128.531 28.7682H129.517C129.556 28.9615 129.575 29.1548 129.575 29.3482C129.575 29.5415 129.595 29.7348 129.633 29.9282H129.053C129.131 30.4308 129.208 30.8175 129.285 31.0882H129.923C130.001 31.3202 130.078 31.5135 130.155 31.6682H130.561C130.909 32.2095 131.567 32.4802 132.533 32.4802C133.5 32.4802 134.157 32.2095 134.505 31.6682H134.737C134.776 31.5908 134.815 31.5135 134.853 31.4362C134.892 31.3202 134.931 31.2042 134.969 31.0882H134.099C134.138 30.8948 134.177 30.7208 134.215 30.5662C134.254 30.3728 134.293 30.1602 134.331 29.9282H134.737C134.776 29.7348 134.795 29.5415 134.795 29.3482C134.795 29.1548 134.815 28.9615 134.853 28.7682H134.331V28.4782H134.505Z" fill="#232525"/>
<path d="M198.108 9.62817C198.185 9.78284 198.263 9.93751 198.34 10.0922C198.417 10.2082 198.475 10.3435 198.514 10.4982H196.368C196.445 10.6528 196.523 10.8462 196.6 11.0782C196.677 11.2715 196.755 11.4648 196.832 11.6582H187.726L188.074 12.8182H192.772L192.946 13.6882H192.308C192.347 13.7655 192.366 13.8622 192.366 13.9782C192.366 14.0942 192.385 14.1908 192.424 14.2682H190.858L190.916 14.8482H192.134C192.134 15.0028 192.134 15.1575 192.134 15.3122C192.173 15.4282 192.192 15.5635 192.192 15.7182H194.338C194.377 15.8728 194.396 16.0082 194.396 16.1242C194.396 16.2402 194.396 16.3755 194.396 16.5302V16.5882H188.944C188.944 16.7815 188.944 16.9748 188.944 17.1682C188.983 17.3615 189.002 17.5548 189.002 17.7482H190.22C190.22 17.9415 190.22 18.1348 190.22 18.3282C190.259 18.5215 190.278 18.7148 190.278 18.9082H192.366V19.1982H191.554V20.3582H191.786V21.2282H195.208V22.3882H191.96V22.9682H191.612C191.612 23.0455 191.612 23.1422 191.612 23.2582C191.612 23.3742 191.593 23.4708 191.554 23.5482H190.51V24.7082H190.626C190.587 24.8242 190.568 24.9788 190.568 25.1722V25.2882H192.714C192.714 25.4428 192.695 25.5975 192.656 25.7522C192.656 25.8682 192.656 26.0035 192.656 26.1582H193.526C193.526 26.3515 193.507 26.5448 193.468 26.7382C193.468 26.9315 193.449 27.1248 193.41 27.3182H192.134C192.095 27.3955 192.076 27.4922 192.076 27.6082C192.076 27.7242 192.057 27.8208 192.018 27.8982H185.058C185.058 28.0528 185.019 28.2462 184.942 28.4782H191.032C190.955 28.7102 190.916 28.9035 190.916 29.0582H191.786C191.747 29.2128 191.709 29.3675 191.67 29.5222C191.67 29.6382 191.631 29.7735 191.554 29.9282L191.38 30.5082H189.698L189.582 30.7982H192.308C192.231 30.9528 192.192 31.0495 192.192 31.0882H190.452L190.336 31.3782H190.278C190.201 31.5715 190.123 31.7648 190.046 31.9582C189.969 32.1515 189.872 32.3448 189.756 32.5382H188.886L188.248 33.6982H189.234L188.886 34.2782H188.944C188.867 34.3555 188.789 34.4522 188.712 34.5682C188.635 34.6842 188.557 34.7808 188.48 34.8582H188.074C187.958 34.9742 187.881 35.0708 187.842 35.1482C187.726 35.3028 187.61 35.4575 187.494 35.6122C187.378 35.7282 187.243 35.8635 187.088 36.0182H186.914C186.721 36.2115 186.508 36.4048 186.276 36.5982C186.083 36.7915 185.87 36.9848 185.638 37.1782H186.16L184.942 38.0482H185C184.691 38.2415 184.362 38.4348 184.014 38.6282C183.666 38.8215 183.299 39.0148 182.912 39.2082H182.854C182.467 39.4015 181.984 39.5948 181.404 39.7882H181.462C180.689 40.0588 179.877 40.2908 179.026 40.4842C178.175 40.6775 177.305 40.8322 176.416 40.9482H177.634C177.015 41.0255 176.377 41.0835 175.72 41.1222C175.063 41.1608 174.386 41.1802 173.69 41.1802H156.696C156.348 41.1802 156.077 41.1028 155.884 40.9482H154.666C154.279 40.7162 154.047 40.3295 153.97 39.7882H153.912V39.2082H154.028V38.0482H153.912V37.1782H153.448V36.0182H153.622V35.1482H153.564V34.8582H154.028V34.2782H153.97V33.6982H152.926V32.5382H153.854V31.3782H153.912V31.0882H155.652V30.7982H152.984V30.5082H154.666V29.0582H153.854V28.4782H153.796V27.8982H155.304V27.3182H148.634V26.1582H148.402V25.2882H149.156V24.7082H151.534V23.5482H153.042V22.9682H153.912V22.3882H154.84V21.2282H156.174V20.3582H157.45V19.1982H153.564V18.9082H152.288V17.7482H149.736V16.5882H156.348V15.7182H151.244V14.8482H154.028V14.2682H153.912V13.6882H153.448V12.8182H150.954V11.6582H160.002V10.4982H162.148V9.62817H151.708V8.46818H158.552V8.17818H153.158V7.88818H164.12V6.72817H162.728V6.43817H148.924V5.27817H150.606V4.40818H154.202V4.11817H156.116V3.53817H155.072V3.24817H153.854V2.66817H153.97V2.14617C153.97 2.06884 153.97 2.01084 153.97 1.97217C154.009 1.89484 154.028 1.83684 154.028 1.79817H154.26C154.453 0.986174 154.975 0.580173 155.826 0.580173H172.53C175.507 0.580173 178.214 0.986174 180.65 1.79817H180.418C181.114 2.03017 181.829 2.32017 182.564 2.66817H182.448C182.641 2.74551 182.835 2.84217 183.028 2.95817C183.26 3.03551 183.453 3.13217 183.608 3.24817H184.826L185.348 3.53817H186.334C186.527 3.61551 186.682 3.71217 186.798 3.82817C186.953 3.94417 187.107 4.04084 187.262 4.11817H185.348C185.425 4.15684 185.503 4.19551 185.58 4.23417C185.657 4.27284 185.715 4.33084 185.754 4.40818H182.158L183.26 5.27817H181.52C181.945 5.62617 182.332 6.01284 182.68 6.43817H196.484C196.523 6.47684 196.561 6.51551 196.6 6.55418C196.639 6.59284 196.677 6.65084 196.716 6.72817H198.166C198.321 6.88284 198.475 7.07617 198.63 7.30817C198.785 7.50151 198.92 7.69484 199.036 7.88818H188.074C188.113 7.92684 188.151 7.96551 188.19 8.00417C188.229 8.04284 188.267 8.10084 188.306 8.17818H193.7L193.874 8.46818H187.03C187.301 8.85484 187.513 9.24151 187.668 9.62817H198.108ZM177.634 13.6882C177.402 13.3402 177.112 13.0502 176.764 12.8182H172.066C171.215 12.1995 170.171 11.8902 168.934 11.8902H165.454V12.8182H167.948V13.6882H168.412V14.2682H168.528V14.8482H165.744V15.7182H170.848V16.5882H164.236V17.7482H166.788V18.9082H168.064V19.1982H171.95V20.3582H170.674V21.2282H169.34V22.3882H168.412V22.9682H167.542V23.5482H166.034V24.7082H163.656V25.2882H162.902V26.1582H163.134V27.3182H169.804V27.8982H168.296V28.4782H168.354V29.0582H169.166V29.8702H172.936C174.057 29.8702 175.005 29.5995 175.778 29.0582H174.85C174.966 28.9808 175.082 28.9035 175.198 28.8262C175.314 28.7102 175.411 28.5942 175.488 28.4782H169.456C169.533 28.4008 169.611 28.3235 169.688 28.2462C169.765 28.1302 169.823 28.0142 169.862 27.8982H176.822C176.899 27.8208 176.957 27.7435 176.996 27.6662C177.035 27.5502 177.073 27.4342 177.112 27.3182H178.446C178.523 27.1248 178.581 26.9315 178.62 26.7382C178.659 26.5448 178.697 26.3515 178.736 26.1582H177.866C177.905 26.0035 177.924 25.8682 177.924 25.7522C177.924 25.5975 177.943 25.4428 177.982 25.2882H175.836V25.1722C175.836 25.0948 175.836 25.0175 175.836 24.9402C175.875 24.8628 175.894 24.7855 175.894 24.7082H175.778C175.778 24.5148 175.778 24.3215 175.778 24.1282C175.778 23.8962 175.797 23.7028 175.836 23.5482H176.88V22.9682H177.228L177.286 22.3882H180.534V21.2282H177.112V20.3582H176.88V19.1982H177.692V18.9082H175.546V17.7482H174.27C174.27 17.5548 174.27 17.3615 174.27 17.1682C174.27 16.9748 174.251 16.7815 174.212 16.5882H179.664V16.5302C179.664 16.3755 179.645 16.2402 179.606 16.1242C179.606 15.9695 179.606 15.8342 179.606 15.7182H177.46C177.421 15.5635 177.383 15.4282 177.344 15.3122C177.305 15.1575 177.267 15.0028 177.228 14.8482H176.01C175.971 14.7322 175.933 14.6355 175.894 14.5582C175.855 14.4422 175.817 14.3455 175.778 14.2682H177.344C177.305 14.1522 177.247 14.0555 177.17 13.9782C177.131 13.8622 177.073 13.7655 176.996 13.6882H177.634ZM233.908 24.4182C233.946 24.6115 233.966 24.8048 233.966 24.9982C233.966 25.1915 233.966 25.3848 233.966 25.5782H229.848V26.1582H227.47V26.7382H229.732V27.0282H227.122V27.8982H225.672V28.1882H228.92C228.92 28.3042 228.9 28.4008 228.862 28.4782H228.688V28.7682H229.21V28.8262C229.21 28.9808 229.19 29.1548 229.152 29.3482C229.152 29.5415 229.132 29.7348 229.094 29.9282H228.688L228.514 31.0882H229.384C229.384 31.2428 229.345 31.4362 229.268 31.6682H229.094C229.055 31.8228 229.016 31.9775 228.978 32.1322C228.939 32.2482 228.9 32.3835 228.862 32.5382H229.326C229.287 32.7315 229.229 32.9248 229.152 33.1182C229.074 33.3115 228.997 33.5048 228.92 33.6982H228.05L227.818 34.2782H227.934C227.856 34.4328 227.818 34.5295 227.818 34.5682H227.586C227.431 34.9548 227.218 35.3415 226.948 35.7282H227.064C227.025 35.8055 226.967 35.9022 226.89 36.0182C226.812 36.1342 226.735 36.2308 226.658 36.3082H226.6L225.904 37.1782C225.865 37.2168 225.826 37.2555 225.788 37.2942C225.749 37.3328 225.691 37.3908 225.614 37.4682H225.324C225.169 37.6228 225.014 37.7775 224.86 37.9322C224.705 38.0482 224.531 38.1835 224.338 38.3382H222.598L221.38 39.2082H221.612C221.534 39.2468 221.457 39.2855 221.38 39.3242C221.302 39.3628 221.225 39.4208 221.148 39.4982H220.742C220.664 39.5368 220.568 39.5755 220.452 39.6142C220.336 39.6528 220.239 39.7108 220.162 39.7882H223.294C223.1 39.9042 222.888 40.0202 222.656 40.1362C222.424 40.2135 222.192 40.2908 221.96 40.3682H220.974C220.703 40.4842 220.413 40.6002 220.104 40.7162C219.794 40.7935 219.485 40.8708 219.176 40.9482H219.408C218.944 41.0642 218.46 41.1608 217.958 41.2382C217.455 41.3542 216.933 41.4508 216.392 41.5282H218.19C217.571 41.6055 216.933 41.6635 216.276 41.7022C215.618 41.7408 214.942 41.7602 214.246 41.7602C213.511 41.7602 212.815 41.7408 212.158 41.7022C211.539 41.6635 210.901 41.6055 210.244 41.5282H208.388C207.885 41.4508 207.363 41.3542 206.822 41.2382C206.319 41.1608 205.836 41.0642 205.372 40.9482H205.198C204.888 40.8708 204.579 40.7935 204.27 40.7162C203.999 40.6002 203.709 40.4842 203.4 40.3682H204.328C204.134 40.2908 203.922 40.2135 203.69 40.1362C203.458 40.0202 203.245 39.9042 203.052 39.7882H199.92L199.398 39.4982H199.804L199.282 39.2082H199.05C198.586 38.8988 198.18 38.6088 197.832 38.3382H199.572C199.417 38.1835 199.262 38.0482 199.108 37.9322C198.953 37.7775 198.798 37.6228 198.644 37.4682H198.934C198.895 37.3908 198.856 37.3328 198.818 37.2942C198.779 37.2555 198.721 37.2168 198.644 37.1782L197.948 36.3082H198.006L197.6 35.7282H197.484C197.213 35.3415 197 34.9548 196.846 34.5682H197.02C196.942 34.4135 196.904 34.3168 196.904 34.2782H196.73L196.498 33.6982H197.368C197.329 33.5048 197.271 33.3115 197.194 33.1182C197.116 32.9248 197.039 32.7315 196.962 32.5382H196.498C196.459 32.3835 196.42 32.2482 196.382 32.1322C196.343 31.9775 196.304 31.8228 196.266 31.6682H195.918L195.744 31.0882H195.164L194.99 29.9282H195.57C195.531 29.7348 195.492 29.5415 195.454 29.3482C195.454 29.1548 195.454 28.9808 195.454 28.8262V28.7682H194.41V28.4782H194.12C194.12 28.4008 194.1 28.3428 194.062 28.3042C194.062 28.2655 194.062 28.2268 194.062 28.1882H197.31C197.31 28.0722 197.29 27.9755 197.252 27.8982H194.004V27.0282H195.396V26.7382H196.092V26.1582H197.31V25.5782H193.772C193.772 25.3848 193.772 25.1915 193.772 24.9982C193.772 24.8048 193.791 24.6115 193.83 24.4182H193.076V23.8382H198.818C198.856 23.7222 198.876 23.5675 198.876 23.3742V22.9682H197.31C197.31 22.8135 197.31 22.6782 197.31 22.5622C197.348 22.4075 197.368 22.2528 197.368 22.0982H197.948L198.122 20.9382H196.208C196.246 20.7835 196.285 20.6482 196.324 20.5322C196.362 20.3775 196.401 20.2228 196.44 20.0682H196.034C196.111 19.8748 196.169 19.6815 196.208 19.4882C196.285 19.2562 196.362 19.0628 196.44 18.9082H196.498C196.536 18.8308 196.575 18.7342 196.614 18.6182C196.652 18.5022 196.691 18.4055 196.73 18.3282H196.672C196.672 18.2895 196.71 18.1928 196.788 18.0382H197.078C197.232 17.6515 197.445 17.2648 197.716 16.8782H196.556L196.904 16.2982H199.05C199.088 16.2208 199.166 16.1242 199.282 16.0082H195.048C195.125 15.8535 195.222 15.7182 195.338 15.6022C195.492 15.4475 195.628 15.2928 195.744 15.1382H197.078C197.271 14.9448 197.464 14.7515 197.658 14.5582C197.89 14.3262 198.102 14.1328 198.296 13.9782H200.964C201.312 13.6688 201.718 13.3788 202.182 13.1082H203.284C203.438 12.9922 203.593 12.8955 203.748 12.8182C203.941 12.7022 204.115 12.6055 204.27 12.5282H200.848C201.196 12.3348 201.621 12.1415 202.124 11.9482H203.69C204.579 11.6002 205.507 11.3102 206.474 11.0782H204.734C206.628 10.6528 208.639 10.4402 210.766 10.4402C212.892 10.4402 214.903 10.6528 216.798 11.0782H218.596C219.562 11.3102 220.471 11.6002 221.322 11.9482H219.698C220.2 12.1415 220.626 12.3348 220.974 12.5282H224.396C224.589 12.6055 224.763 12.7022 224.918 12.8182C225.111 12.8955 225.285 12.9922 225.44 13.1082H224.338L225.556 13.9782H222.888C223.12 14.1328 223.332 14.3262 223.526 14.5582C223.758 14.7515 223.97 14.9448 224.164 15.1382H222.83C222.946 15.2928 223.062 15.4475 223.178 15.6022C223.332 15.7182 223.448 15.8535 223.526 16.0082H227.818L227.992 16.2982H225.904L226.252 16.8782H227.412C227.682 17.2648 227.895 17.6515 228.05 18.0382H227.76C227.837 18.1928 227.876 18.2895 227.876 18.3282H227.992L228.224 18.9082H228.166C228.243 19.0628 228.32 19.2562 228.398 19.4882C228.475 19.6815 228.533 19.8748 228.572 20.0682H229.152L229.326 20.9382H228.978C229.055 21.0928 229.094 21.2862 229.094 21.5182C229.132 21.7115 229.171 21.9048 229.21 22.0982H229.674C229.712 22.2528 229.732 22.4075 229.732 22.5622C229.732 22.6782 229.751 22.8135 229.79 22.9682H227.528V23.3742C227.528 23.5675 227.547 23.7222 227.586 23.8382H226.426V24.4182H233.908ZM211.636 22.0982C211.597 22.2528 211.558 22.4075 211.52 22.5622C211.52 22.6782 211.52 22.8135 211.52 22.9682H213.144C213.105 23.0842 213.086 23.2002 213.086 23.3162C213.086 23.4322 213.086 23.5482 213.086 23.6642V23.8382H213.318V23.6642C213.318 23.5482 213.298 23.4322 213.26 23.3162C213.26 23.2002 213.26 23.0842 213.26 22.9682H215.522C215.522 22.8135 215.502 22.6782 215.464 22.5622C215.464 22.4075 215.464 22.2528 215.464 22.0982H215C214.961 21.8662 214.903 21.6535 214.826 21.4602C214.787 21.2668 214.729 21.0928 214.652 20.9382H215.058C214.903 20.5902 214.671 20.3002 214.362 20.0682H213.782C213.395 19.8362 212.892 19.7202 212.274 19.7202C211.655 19.7202 211.172 19.8362 210.824 20.0682H211.23C211.075 20.1842 210.94 20.3195 210.824 20.4742C210.708 20.5902 210.611 20.7448 210.534 20.9382H212.448C212.409 21.0928 212.351 21.2668 212.274 21.4602C212.235 21.6535 212.196 21.8662 212.158 22.0982H211.636ZM215.58 25.5782H219.698V24.4182H212.216C212.177 24.2635 212.158 24.0702 212.158 23.8382H207.344C207.344 24.0702 207.324 24.2635 207.286 24.4182H208.04V25.5782H211.578V26.1582H210.302V26.7382H209.606V27.0282H208.214C208.214 27.1828 208.214 27.3375 208.214 27.4922C208.252 27.6082 208.272 27.7435 208.272 27.8982H212.854V27.0282H215.464V26.7382H213.202V26.1582H215.58V25.5782ZM214.652 28.4782V28.1882H208.33V28.4782H208.62V28.5362C208.62 28.5748 208.62 28.6135 208.62 28.6522C208.658 28.6908 208.678 28.7295 208.678 28.7682H209.664C209.702 28.9615 209.722 29.1548 209.722 29.3482C209.722 29.5415 209.741 29.7348 209.78 29.9282H209.2C209.277 30.4308 209.354 30.8175 209.432 31.0882H210.07C210.147 31.3202 210.224 31.5135 210.302 31.6682H210.708C211.056 32.2095 211.713 32.4802 212.68 32.4802C213.646 32.4802 214.304 32.2095 214.652 31.6682H214.884C214.922 31.5908 214.961 31.5135 215 31.4362C215.038 31.3202 215.077 31.2042 215.116 31.0882H214.246C214.284 30.8948 214.323 30.7208 214.362 30.5662C214.4 30.3728 214.439 30.1602 214.478 29.9282H214.884C214.922 29.7348 214.942 29.5415 214.942 29.3482C214.942 29.1548 214.961 28.9615 215 28.7682H214.478V28.4782H214.652ZM265.843 22.3882H269.787C269.787 22.4268 269.767 22.4655 269.729 22.5042C269.69 22.5428 269.651 22.6008 269.613 22.6782H268.279C267.969 23.0648 267.544 23.2582 267.003 23.2582H255.693C255.151 23.2582 254.726 23.0648 254.417 22.6782H255.751L255.577 22.3882H251.575L251.401 22.0982C251.362 21.9435 251.265 21.7502 251.111 21.5182H250.125C249.893 21.0928 249.641 20.8028 249.371 20.6482H250.821C250.511 20.4548 250.144 20.3582 249.719 20.3582C249.255 20.3582 248.868 20.4548 248.559 20.6482H247.341C247.031 20.8028 246.78 21.0928 246.587 21.5182H246.065C245.987 21.6728 245.91 21.8662 245.833 22.0982H248.965C248.926 22.1755 248.907 22.2722 248.907 22.3882H250.473C250.434 22.4655 250.415 22.5622 250.415 22.6782H252.329C252.29 22.7555 252.271 22.8522 252.271 22.9682C252.271 23.0842 252.251 23.1808 252.213 23.2582H252.445V23.5482H250.183V24.1282H242.933V24.4182H254.069C254.03 24.6115 254.011 24.8048 254.011 24.9982C254.011 25.1915 254.011 25.3848 254.011 25.5782H243.745V25.8682H247.863V26.1582H246.761V27.3182H243.629C243.629 27.4728 243.629 27.6275 243.629 27.7822C243.629 27.8982 243.648 28.0335 243.687 28.1882V28.7682H247.167C247.167 29.0388 247.186 29.2322 247.225 29.3482H244.035C244.112 29.8508 244.189 30.2375 244.267 30.5082H243.629C243.861 31.0495 244.189 31.4362 244.615 31.6682H246.529C246.838 31.7842 247.167 31.8422 247.515 31.8422C247.94 31.8422 248.288 31.7842 248.559 31.6682H249.371C249.719 31.4748 250.047 31.0882 250.357 30.5082H248.791L248.965 30.1022C249.042 29.9475 249.119 29.8122 249.197 29.6962C249.313 29.5415 249.409 29.4255 249.487 29.3482H253.547C253.895 29.0775 254.281 28.9422 254.707 28.9422H266.017C266.403 28.9422 266.771 29.0775 267.119 29.3482H263.059C263.445 29.6575 263.6 30.0442 263.523 30.5082H265.089C265.05 30.6628 265.011 30.8368 264.973 31.0302C264.973 31.2235 264.934 31.4362 264.857 31.6682H263.987L263.813 32.2482H267.525L267.409 32.5382H266.191L266.075 32.8282H259.637L259.463 33.1182H266.481L265.843 34.2782H266.423L266.249 34.5682H261.899C261.783 34.7615 261.647 34.9548 261.493 35.1482C261.377 35.3415 261.241 35.5348 261.087 35.7282H260.043C260.004 35.7668 259.965 35.8055 259.927 35.8442C259.888 35.8828 259.849 35.9408 259.811 36.0182H263.813C263.774 36.0568 263.735 36.0955 263.697 36.1342C263.658 36.1728 263.619 36.2308 263.581 36.3082H260.681C260.642 36.3468 260.603 36.3855 260.565 36.4242C260.526 36.4628 260.468 36.5208 260.391 36.5982H262.827L262.247 37.1782H261.957L261.667 37.4682H262.363L261.667 38.0482H262.711C262.517 38.2028 262.305 38.3575 262.073 38.5122C261.879 38.6282 261.667 38.7635 261.435 38.9182H262.595L262.131 39.2082H260.855L259.811 39.7882H260.159C259.54 40.1362 258.844 40.4262 258.071 40.6582H257.085C256.737 40.7742 256.389 40.8902 256.041 41.0062C255.693 41.0835 255.345 41.1608 254.997 41.2382H254.475C254.204 41.2768 253.933 41.3155 253.663 41.3542C253.392 41.4315 253.121 41.4895 252.851 41.5282H254.011C253.469 41.6055 252.909 41.6635 252.329 41.7022C251.749 41.7408 251.149 41.7602 250.531 41.7602C249.951 41.7602 249.39 41.7408 248.849 41.7022C248.307 41.6635 247.766 41.6055 247.225 41.5282H246.007C245.736 41.4895 245.465 41.4315 245.195 41.3542C244.963 41.3155 244.711 41.2768 244.441 41.2382H244.963C244.615 41.1608 244.267 41.0835 243.919 41.0062C243.571 40.8902 243.242 40.7742 242.933 40.6582H243.919C243.184 40.4262 242.507 40.1362 241.889 39.7882H241.483C241.328 39.7108 241.154 39.6335 240.961 39.5562C240.806 39.4402 240.651 39.3242 240.497 39.2082H241.715L241.251 38.9182H240.091L238.931 38.0482H237.945C237.829 37.9708 237.713 37.8742 237.597 37.7582C237.481 37.6422 237.384 37.5455 237.307 37.4682H236.553L236.263 37.1782H236.553L235.973 36.5982H233.595C233.479 36.4822 233.401 36.3855 233.363 36.3082H236.263C236.147 36.1922 236.069 36.0955 236.031 36.0182H231.971C231.932 35.9408 231.855 35.8442 231.739 35.7282H232.783C232.628 35.5348 232.493 35.3415 232.377 35.1482C232.261 34.9548 232.145 34.7615 232.029 34.5682H236.379L236.205 34.2782H235.625C235.509 34.0848 235.393 33.8915 235.277 33.6982C235.199 33.5048 235.122 33.3115 235.045 33.1182H228.085L227.969 32.8282H234.407L234.291 32.5382H235.509L235.393 32.2482H231.681L231.507 31.6682H229.593C229.554 31.4748 229.515 31.2815 229.477 31.0882C229.438 30.8948 229.399 30.7015 229.361 30.5082H229.941L229.767 29.3482H232.957V28.7682H229.477V28.4782C229.438 28.2848 229.419 28.0915 229.419 27.8982C229.419 27.7048 229.419 27.5115 229.419 27.3182H232.551V26.1582H233.653V25.8682H229.535V25.5782H239.801V24.4182H228.723V24.1282H235.973V23.5482H238.235V23.2582H238.003C238.041 23.1808 238.061 23.0842 238.061 22.9682C238.061 22.8522 238.061 22.7555 238.061 22.6782H236.205V22.3882H234.639C234.639 22.2722 234.658 22.1755 234.697 22.0982H231.565C231.642 21.8662 231.681 21.6728 231.681 21.5182H232.261L232.435 20.6482H233.653L234.001 19.4882H234.117C234.155 19.3335 234.213 19.1982 234.291 19.0822C234.368 18.9275 234.426 18.7728 234.465 18.6182H234.175C234.252 18.4248 234.329 18.2315 234.407 18.0382C234.523 17.8062 234.639 17.6128 234.755 17.4582H234.407C234.484 17.3035 234.561 17.1682 234.639 17.0522C234.755 16.8975 234.871 16.7428 234.987 16.5882H235.045C235.199 16.3948 235.354 16.2015 235.509 16.0082C235.663 15.7762 235.818 15.5828 235.973 15.4282H236.031C236.263 15.1188 236.553 14.8288 236.901 14.5582H236.611L236.959 14.2682H236.843L237.191 13.9782H239.337C239.414 13.9008 239.491 13.8428 239.569 13.8042C239.646 13.7655 239.704 13.7268 239.743 13.6882H238.467C238.544 13.6108 238.621 13.5528 238.699 13.5142C238.776 13.4755 238.834 13.4368 238.873 13.3982H238.409C239.105 12.9342 239.781 12.5475 240.439 12.2382H241.599C241.831 12.1222 242.063 12.0255 242.295 11.9482C242.527 11.8322 242.759 11.7355 242.991 11.6582H241.657C241.811 11.5808 241.947 11.5228 242.063 11.4842C242.217 11.4455 242.372 11.4068 242.527 11.3682H242.469C242.662 11.2908 242.836 11.2328 242.991 11.1942C243.184 11.1555 243.358 11.1168 243.513 11.0782H243.339C245.04 10.6528 246.819 10.4402 248.675 10.4402C249.719 10.4402 250.705 10.4982 251.633 10.6142C252.561 10.7302 253.431 10.8848 254.243 11.0782H254.417C254.61 11.1168 254.784 11.1555 254.939 11.1942C255.132 11.2328 255.306 11.2908 255.461 11.3682H255.519C255.673 11.4068 255.809 11.4455 255.925 11.4842C256.079 11.5228 256.234 11.5808 256.389 11.6582H257.723C258.303 11.8515 258.786 12.0448 259.173 12.2382H257.955C258.341 12.3928 258.709 12.5862 259.057 12.8182C259.405 13.0115 259.753 13.2048 260.101 13.3982H260.565C260.642 13.4368 260.719 13.4755 260.797 13.5142C260.874 13.5528 260.932 13.6108 260.971 13.6882H262.247C262.324 13.7268 262.382 13.7655 262.421 13.8042C262.498 13.8428 262.575 13.9008 262.653 13.9782H260.507L260.855 14.2682H260.971L261.319 14.5582H261.551C261.744 14.7128 261.918 14.8675 262.073 15.0222C262.227 15.1382 262.382 15.2735 262.537 15.4282H262.479C262.672 15.6215 262.846 15.8148 263.001 16.0082C263.194 16.2015 263.368 16.3948 263.523 16.5882H263.465C263.581 16.7428 263.697 16.8975 263.813 17.0522C263.929 17.1682 264.025 17.3035 264.103 17.4582H264.451C264.605 17.6515 264.741 17.8448 264.857 18.0382C264.973 18.2315 265.069 18.4248 265.147 18.6182H265.495C265.572 18.7728 265.649 18.9275 265.727 19.0822C265.804 19.1982 265.862 19.3335 265.901 19.4882H265.843C265.92 19.6815 265.997 19.8748 266.075 20.0682C266.152 20.2615 266.21 20.4548 266.249 20.6482H264.799L264.973 21.5182H265.959V22.0982L265.843 22.3882Z" fill="#F08539"/>
</svg>
