<svg width="177" height="28" viewBox="0 0 177 28" fill="none" xmlns="http://www.w3.org/2000/svg">
<path d="M29.184 24.928L29.45 25.688H28.804L28.88 25.878C28.88 25.9033 28.88 25.9413 28.88 25.992C28.9053 26.0173 28.918 26.0426 28.918 26.068H28.69V26.144C28.69 26.448 28.576 26.676 28.348 26.828H28.386C28.2593 26.9293 28.0947 26.98 27.892 26.98H20.862C20.6847 26.98 20.5327 26.9673 20.406 26.942C20.3047 26.8913 20.1907 26.8533 20.064 26.828C19.8613 26.7266 19.7093 26.6126 19.608 26.486C19.5067 26.334 19.4307 26.1946 19.38 26.068H19.57V26.03L19.494 25.878L19.418 25.688H20.064L19.798 24.928H19.076L18.962 24.548H20.52L20.254 23.788H19.798L19.684 23.522H11.514L11.438 23.788H10.982L10.716 24.548H10.298L10.146 24.928H9.918L9.652 25.688H9.68999L9.61399 25.878L9.576 26.03L9.53799 26.068H9.34799C9.29733 26.1946 9.22133 26.334 9.11999 26.486C9.01866 26.6126 8.86666 26.7266 8.66399 26.828H9.80399C9.70266 26.8533 9.58866 26.8913 9.46199 26.942C9.33533 26.9673 9.18333 26.98 9.006 26.98H1.97599C1.77333 26.98 1.62133 26.9293 1.51999 26.828H0.379994C0.126661 26.6506 -5.61704e-06 26.4226 -5.61704e-06 26.144V26.068H0.227994C0.227994 25.992 0.240661 25.9286 0.265994 25.878L0.303994 25.688H0.265994L0.531994 24.928H0.759994L0.911994 24.548H1.32999L1.59599 23.788H2.01399L2.27999 23.028H0.797994L0.949994 22.648H0.835994L1.02599 22.078H1.40599L1.48199 21.888H0.645994L0.911994 21.128H2.20399L2.31799 20.748H1.13999L1.21599 20.558H1.40599L1.67199 19.798H1.55799L1.74799 19.228H1.89999L2.16599 18.468H2.65999L2.84999 17.898L2.92599 17.708H4.82599L4.90199 17.518H4.78799L4.97799 16.948H2.84999L3.11599 16.188H3.79999L3.87599 15.998H3.45799L3.53399 15.808H4.74999L5.01599 15.048H3.53399L3.68599 14.668H4.25599L4.52199 13.908H4.17999L4.36999 13.338H4.78799L5.05399 12.578H4.93999L5.01599 12.388H4.14199L4.29399 12.008H5.12999L5.31999 11.438H4.93999L4.97799 11.248H5.66199L5.92799 10.488H5.09199L5.28199 9.91798H4.86399L4.97799 9.53798H2.35599L2.46999 9.15798H1.97599L2.24199 8.39798H1.74799L1.97599 7.82798H3.45799L3.72399 7.06798H7.52399L7.71399 6.49798H5.88999L6.04199 6.11798H7.44799L7.71399 5.35798H6.45999L6.64999 4.78798H7.44799L7.71399 4.02798H7.59999L7.86599 3.26798H6.80199L6.83999 3.07798H10.488L10.754 2.31798H10.64L10.716 2.12798H9.38599L9.53799 1.63398L9.652 1.36798H10.032L10.26 0.98798H10.146C10.2727 0.810646 10.45 0.671312 10.678 0.569978C10.906 0.443312 11.1847 0.379979 11.514 0.379979H19.76C20.0893 0.379979 20.368 0.443312 20.596 0.569978C20.824 0.671312 21.0013 0.810646 21.128 0.98798H21.28L21.508 1.36798H21.128C21.1787 1.46931 21.204 1.55798 21.204 1.63398L21.394 2.12798H22.724L22.762 2.31798H22.876L23.142 3.07798H19.532L19.608 3.26798H20.672L20.938 4.02798H21.052L21.318 4.78798H20.52L20.71 5.35798H21.964L22.23 6.11798H20.824L20.976 6.49798H22.8L22.99 7.06798H19.19L19.456 7.82798H17.974L18.164 8.39798H18.62L18.886 9.15798H17.404L17.556 9.53798H23.598L23.712 9.91798H23.408L23.598 10.488H22.838L23.104 11.248H22.192L22.23 11.438H23.598L23.788 12.008H23.826L23.978 12.388H22.724L22.8 12.578H24.016L24.282 13.338H24.7L24.89 13.908H24.776L25.042 14.668H25.65L25.802 15.048H24.7L24.966 15.808H25.726L25.764 15.998H25.574L25.65 16.188H24.966L25.194 16.948H27.36L27.55 17.518H27.664L27.74 17.708H25.802L25.878 17.898H25.916L26.106 18.468H25.612L25.878 19.228H25.688L25.916 19.798H26.03L26.296 20.558H26.106L26.182 20.748H27.36L27.512 21.128H26.182L26.448 21.888H27.284L27.36 22.078H26.98L27.208 22.648H27.284L27.436 23.028H28.918L29.184 23.788H29.64L29.906 24.548H28.348L28.462 24.928H29.184ZM13.3 9.91798H13.756L13.566 10.488H15.124L14.934 9.91798H15.238L15.124 9.53798H13.414L13.3 9.91798ZM14.554 11.248L14.364 10.602L14.174 11.248H14.554ZM12.274 15.808L12.198 15.998H12.616L12.578 16.112H16.872L16.834 15.998H17.024L16.986 15.808H16.226L15.998 15.048H17.1L16.986 14.668H16.34L16.112 13.908H16.226L16.074 13.338H15.656L15.428 12.578H14.212L14.136 12.388H15.39L15.276 12.008H15.238L15.048 11.438H13.832L13.68 12.008H12.844L12.73 12.388H13.566L13.528 12.578H13.642L13.414 13.338H12.996L12.806 13.908H13.148L12.92 14.668H12.35L12.236 15.048H13.718L13.49 15.808H12.274ZM52.554 11.248H51.908V11.818H52.06V12.388H52.896V12.768H52.44V13.528H52.326V13.718H52.478V14.478H51.87V14.858H50.654V15.238H51.566V15.808H52.174V16.188H52.364V16.948H52.478V18.088H52.44V18.658H52.364V19.418H53.542V19.988H51.718V20.938H52.516V21.128H52.82V21.318H51.87V21.888H51.604V22.648H52.516V23.408H52.25V23.978H52.516V24.358H52.44V25.118H52.402V25.878H52.478V26.068H52.44C52.3893 26.3213 52.3007 26.5113 52.174 26.638H52.82C52.668 26.866 52.4147 26.98 52.06 26.98H45.41C45.106 26.98 44.8527 26.866 44.65 26.638H44.004C43.8773 26.5113 43.7887 26.3213 43.738 26.068H43.776V25.878H43.7V25.118H43.738V24.7C43.662 24.852 43.5607 24.9913 43.434 25.118H43.51C43.2567 25.422 42.9907 25.6753 42.712 25.878H42.636C42.6107 25.9033 42.5727 25.9286 42.522 25.954C42.4713 25.9793 42.4207 26.0173 42.37 26.068H42.294C41.9647 26.296 41.6227 26.486 41.268 26.638H41.914C41.306 26.9166 40.6473 27.1066 39.938 27.208H39.444C39.14 27.2586 38.8233 27.2966 38.494 27.322C38.19 27.3473 37.8607 27.36 37.506 27.36C37.2527 27.36 36.9993 27.3473 36.746 27.322C36.4927 27.2966 36.2267 27.2586 35.948 27.208H36.442C35.834 27.0813 35.264 26.8913 34.732 26.638H34.086C33.706 26.4606 33.3767 26.2706 33.098 26.068H33.212C33.1867 26.0173 33.1487 25.9793 33.098 25.954C33.0473 25.9286 32.9967 25.9033 32.946 25.878H33.022C32.8953 25.7513 32.756 25.6246 32.604 25.498C32.4773 25.3713 32.3507 25.2446 32.224 25.118H32.148C32.0467 24.9913 31.9453 24.8646 31.844 24.738C31.7427 24.6113 31.6413 24.4846 31.54 24.358H31.616C31.5907 24.3073 31.5527 24.244 31.502 24.168C31.4513 24.092 31.4007 24.0286 31.35 23.978H31.084C31.0587 23.8766 31.008 23.788 30.932 23.712C30.8813 23.6106 30.8307 23.5093 30.78 23.408H31.084C30.9573 23.1293 30.856 22.876 30.78 22.648H29.868C29.8427 22.5213 29.8047 22.3946 29.754 22.268C29.7033 22.1413 29.6653 22.0146 29.64 21.888H29.868L29.754 21.318H30.704C30.6787 21.2673 30.666 21.204 30.666 21.128H30.324C30.324 21.052 30.3113 20.9886 30.286 20.938H29.526C29.5007 20.8873 29.488 20.824 29.488 20.748C29.488 20.672 29.4753 20.6086 29.45 20.558H31.464C31.4387 20.4566 31.426 20.368 31.426 20.292C31.426 20.1906 31.4133 20.0893 31.388 19.988H30.932C30.9067 19.8866 30.894 19.798 30.894 19.722C30.894 19.6206 30.894 19.5193 30.894 19.418H30.248V18.658H30.02V18.088H29.906V17.708H29.982V16.188H29.83V15.808H29.488V15.238H29.906V14.858H30.172V14.478H30.21V13.718H30.058V13.528H30.172V12.768H30.894V12.388H30.21V11.818H29.982V11.248H29.868V10.488H30.818V10.108H31.502V9.72798H31.122V9.34798H30.286V9.15798H30.058V8.77798H30.02V8.24598C30.02 8.19531 30.02 8.15731 30.02 8.13198C30.0453 8.08131 30.058 8.04331 30.058 8.01798H30.02C30.1213 7.48598 30.4507 7.21998 31.008 7.21998H38.266C38.8487 7.21998 39.178 7.48598 39.254 8.01798H39.33V8.77798H39.368V9.15798H39.596V9.34798H40.432V9.72798H40.812V10.108H40.128V10.488H39.178V11.248H39.292V11.818H39.52V12.388H40.204V12.768H39.482V13.528H39.368V13.718H39.52V14.478H39.482V14.858H39.216V15.238H38.798V15.808H39.14V16.188H39.292V17.708H39.216V18.088H39.33V18.468C39.33 18.544 39.3427 18.6073 39.368 18.658H39.558C39.558 18.9366 39.596 19.19 39.672 19.418H40.318C40.394 19.6206 40.4953 19.8106 40.622 19.988H41.116C41.2427 20.14 41.3947 20.254 41.572 20.33C41.7493 20.254 41.8887 20.14 41.99 19.988H43.814C43.9407 19.8106 44.042 19.6206 44.118 19.418H42.978C43.054 19.19 43.092 18.9366 43.092 18.658H43.168V18.088H43.206V16.948H43.092V16.188H42.902V15.808H42.294V15.238H41.382V14.858H42.598V14.478H43.206V13.718H43.054V13.528H43.168V12.768H43.624V12.388H42.788V11.818H42.636V11.248H43.282V10.488H44.08V10.108H45.068V9.72798H43.814V9.34798H43.168V9.15798H43.016V8.77798H43.168V8.24598C43.168 8.14465 43.1807 8.06865 43.206 8.01798H42.94C43.0667 7.48598 43.4087 7.21998 43.966 7.21998H51.186C51.718 7.21998 52.0473 7.48598 52.174 8.01798H52.402C52.4273 8.06865 52.44 8.14465 52.44 8.24598V8.77798H52.288V9.15798H52.44V9.34798H53.086V9.72798H54.34V10.108H53.352V10.488H52.554V11.248ZM73.9035 22.648H72.9915V23.028H74.3595V23.408H75.6135V23.978H74.7395V24.548H77.2855V25.118H73.1435V25.878H73.4475V25.954C73.4475 26.0046 73.4348 26.0426 73.4095 26.068C73.3588 26.3213 73.2701 26.5113 73.1435 26.638H72.8395C72.7381 26.7393 72.6621 26.8026 72.6115 26.828H73.9035C73.7768 26.9293 73.5995 26.98 73.3715 26.98H69.0775C68.6468 26.98 68.2161 26.9673 67.7855 26.942C67.3801 26.9166 66.9875 26.8786 66.6075 26.828H65.3155C65.1381 26.8026 64.9608 26.7773 64.7835 26.752C64.6061 26.7013 64.4161 26.6633 64.2135 26.638H64.5175C64.1881 26.562 63.8715 26.4733 63.5675 26.372C63.2888 26.2706 63.0101 26.1693 62.7315 26.068H62.7695C62.6935 26.0173 62.6175 25.9793 62.5415 25.954C62.4655 25.9286 62.4021 25.9033 62.3515 25.878H62.0475C61.8448 25.7513 61.6421 25.6373 61.4395 25.536C61.2368 25.4093 61.0341 25.27 60.8315 25.118H65.0115C64.9101 25.0166 64.7961 24.928 64.6695 24.852C64.5681 24.7506 64.4668 24.6493 64.3655 24.548H61.8195L61.3255 23.978H62.2375C62.1615 23.8766 62.0855 23.788 62.0095 23.712C61.9588 23.6106 61.9081 23.5093 61.8575 23.408H60.6035L60.3755 23.028H59.0075C58.9821 22.9773 58.9568 22.914 58.9315 22.838C58.9061 22.762 58.8681 22.6986 58.8175 22.648H59.7675L59.5395 22.078H60.2995L60.1855 21.698C60.1348 21.546 60.1095 21.4193 60.1095 21.318H63.1115C63.0861 21.2166 63.0608 21.128 63.0355 21.052C63.0355 20.9506 63.0355 20.8493 63.0355 20.748H58.7035C58.7035 20.6973 58.6908 20.6593 58.6655 20.634C58.6655 20.6086 58.6655 20.5833 58.6655 20.558H58.5515C58.5515 20.4566 58.5388 20.368 58.5135 20.292C58.5135 20.1906 58.5135 20.0893 58.5135 19.988H58.3995C58.3995 19.8866 58.3868 19.798 58.3615 19.722C58.3615 19.6206 58.3615 19.5193 58.3615 19.418H58.8935V19.228H58.5515V18.848H58.2475V18.088H58.7035V17.328H58.2475V16.758H58.5895V16.378H58.6275V15.808H58.8175V14.478H58.8935V13.908H59.0835V13.87H56.0815C55.7015 13.87 55.3975 13.6926 55.1695 13.338H55.7395C55.6635 13.186 55.6255 13.0213 55.6255 12.844V12.578H54.4095V12.008H54.6755V11.248H54.4855V10.868H54.5615V10.488H55.1315V10.298H54.1815V9.72798H55.3215V9.15798H55.0935V8.77798H54.8275V8.20798H54.5995V8.01798H54.4855C54.5615 7.63798 54.8021 7.38465 55.2075 7.25798H55.4355C55.5115 7.23265 55.6128 7.21998 55.7395 7.21998H58.7415V7.06798H58.8935V6.49798H58.5895V6.11798H58.5515V5.54798H58.3995V5.35798H57.4875V4.97798H56.6135V4.78798H56.9175V4.59798H57.7915V3.83798H58.1335V3.45798H56.9175V3.07798H58.7795V2.50798H58.5895V2.31798H58.1715V1.93798H58.5515V1.74798H58.1715V1.17798H58.5135V1.02598C58.5135 0.899313 58.5388 0.75998 58.5895 0.60798H59.0835C59.2608 0.202646 59.5775 -2.09808e-05 60.0335 -2.09808e-05H66.6835C67.0888 -2.09808e-05 67.4055 0.202646 67.6335 0.60798H67.1395C67.1901 0.75998 67.2155 0.899313 67.2155 1.02598V1.17798H66.8735V1.74798H67.2535V1.93798H66.8735V2.31798H67.2915V2.50798H67.4815V3.07798H65.6195V3.45798H66.8355V3.83798H66.4935V4.59798H65.6195V4.78798H65.3155V4.97798H66.1895V5.35798H67.1015V5.54798H67.2535V6.11798H67.2915V6.49798H67.5955V7.06798H67.4435V7.21998H72.2315C72.3581 7.21998 72.4468 7.23265 72.4975 7.25798H72.2695C72.6241 7.38465 72.8648 7.63798 72.9915 8.01798H73.1055C73.1055 8.04331 73.1055 8.06865 73.1055 8.09398C73.1308 8.11931 73.1435 8.15731 73.1435 8.20798H73.3715V8.77798H73.6375V9.15798H73.8655V9.72798H72.7255V10.298H73.6755V10.488H73.1055V10.868H73.0295V11.248H73.2195V12.008H72.9535V12.578H74.1695V12.844C74.1695 12.9453 74.1568 13.034 74.1315 13.11C74.1061 13.186 74.0681 13.262 74.0175 13.338H73.4855C73.2575 13.6926 72.9535 13.87 72.5735 13.87H67.7855V13.908H67.5955V14.478H67.5195V15.808H67.3295V16.378H67.2915V16.758H66.9495V17.328H67.4055V18.088H66.9495C66.9495 18.2146 66.9495 18.3413 66.9495 18.468C66.9748 18.5946 67.0001 18.7213 67.0255 18.848H67.3675C67.4181 19 67.4688 19.1266 67.5195 19.228H67.8235L67.9375 19.418H67.4055C67.6841 19.7726 68.1148 19.95 68.6975 19.95H72.1555C72.2821 19.95 72.3708 19.9626 72.4215 19.988H72.5355C72.8395 20.064 73.0548 20.254 73.1815 20.558H73.2955C73.2955 20.5833 73.2955 20.6086 73.2955 20.634C73.3208 20.6593 73.3335 20.6973 73.3335 20.748H77.6655C77.6655 20.7733 77.6655 20.8113 77.6655 20.862C77.6908 20.8873 77.7035 20.9253 77.7035 20.976V21.318H74.6635V22.078H73.9035V22.648ZM100.74 15.998C100.765 16.1246 100.778 16.2513 100.778 16.378C100.778 16.5046 100.778 16.6313 100.778 16.758H98.0801V17.138H96.5221V17.518H98.0041V17.708H96.2941V18.278H95.3441V18.468H97.4721C97.4721 18.544 97.4594 18.6073 97.4341 18.658H97.3201V18.848H97.6621V18.886C97.6621 18.9873 97.6494 19.1013 97.6241 19.228C97.6241 19.3546 97.6114 19.4813 97.5861 19.608H97.3201L97.2061 20.368H97.7761C97.7761 20.4693 97.7507 20.596 97.7001 20.748H97.5861C97.5607 20.8493 97.5354 20.9506 97.5101 21.052C97.4847 21.128 97.4594 21.2166 97.4341 21.318H97.7381C97.7127 21.4446 97.6747 21.5713 97.6241 21.698C97.5734 21.8246 97.5227 21.9513 97.4721 22.078H96.9021L96.7501 22.458H96.8261C96.7754 22.5593 96.7501 22.6226 96.7501 22.648H96.5981C96.4967 22.9013 96.3574 23.1546 96.1801 23.408H96.2561C96.2307 23.4586 96.1927 23.522 96.1421 23.598C96.0914 23.674 96.0407 23.7373 95.9901 23.788H95.9521L95.4961 24.358C95.4707 24.3833 95.4454 24.4086 95.4201 24.434C95.3947 24.4593 95.3567 24.4973 95.3061 24.548H95.1161C95.0147 24.6493 94.9134 24.7506 94.8121 24.852C94.7107 24.928 94.5967 25.0166 94.4701 25.118H93.3301L92.5321 25.688H92.6841C92.6334 25.7133 92.5827 25.7386 92.5321 25.764C92.4814 25.7893 92.4307 25.8273 92.3801 25.878H92.1141C92.0634 25.9033 92.0001 25.9286 91.9241 25.954C91.8481 25.9793 91.7847 26.0173 91.7341 26.068H93.7861C93.6594 26.144 93.5201 26.22 93.3681 26.296C93.2161 26.3466 93.0641 26.3973 92.9121 26.448H92.2661C92.0887 26.524 91.8987 26.6 91.6961 26.676C91.4934 26.7266 91.2907 26.7773 91.0881 26.828H91.2401C90.9361 26.904 90.6194 26.9673 90.2901 27.018C89.9607 27.094 89.6187 27.1573 89.2641 27.208H90.4421C90.0367 27.2586 89.6187 27.2966 89.1881 27.322C88.7574 27.3473 88.3141 27.36 87.8581 27.36C87.3767 27.36 86.9207 27.3473 86.4901 27.322C86.0847 27.2966 85.6667 27.2586 85.2361 27.208H84.0201C83.6907 27.1573 83.3487 27.094 82.9941 27.018C82.6647 26.9673 82.3481 26.904 82.0441 26.828H81.9301C81.7274 26.7773 81.5247 26.7266 81.3221 26.676C81.1447 26.6 80.9547 26.524 80.7521 26.448H81.3601C81.2334 26.3973 81.0941 26.3466 80.9421 26.296C80.7901 26.22 80.6507 26.144 80.5241 26.068H78.4721L78.1301 25.878H78.3961L78.0541 25.688H77.9021C77.5981 25.4853 77.3321 25.2953 77.1041 25.118H78.2441C78.1427 25.0166 78.0414 24.928 77.9401 24.852C77.8387 24.7506 77.7374 24.6493 77.6361 24.548H77.8261C77.8007 24.4973 77.7754 24.4593 77.7501 24.434C77.7247 24.4086 77.6867 24.3833 77.6361 24.358L77.1801 23.788H77.2181L76.9521 23.408H76.8761C76.6987 23.1546 76.5594 22.9013 76.4581 22.648H76.5721C76.5214 22.5466 76.4961 22.4833 76.4961 22.458H76.3821L76.2301 22.078H76.8001C76.7747 21.9513 76.7367 21.8246 76.6861 21.698C76.6354 21.5713 76.5847 21.4446 76.5341 21.318H76.2301C76.2047 21.2166 76.1794 21.128 76.1541 21.052C76.1287 20.9506 76.1034 20.8493 76.0781 20.748H75.8501L75.7361 20.368H75.3561L75.2421 19.608H75.6221C75.5967 19.4813 75.5714 19.3546 75.5461 19.228C75.5461 19.1013 75.5461 18.9873 75.5461 18.886V18.848H74.8621V18.658H74.6721C74.6721 18.6073 74.6594 18.5693 74.6341 18.544C74.6341 18.5186 74.6341 18.4933 74.6341 18.468H76.7621C76.7621 18.392 76.7494 18.3286 76.7241 18.278H74.5961V17.708H75.5081V17.518H75.9641V17.138H76.7621V16.758H74.4441C74.4441 16.6313 74.4441 16.5046 74.4441 16.378C74.4441 16.2513 74.4567 16.1246 74.4821 15.998H73.9881V15.618H77.7501C77.7754 15.542 77.7881 15.4406 77.7881 15.314V15.048H76.7621C76.7621 14.9466 76.7621 14.858 76.7621 14.782C76.7874 14.6806 76.8001 14.5793 76.8001 14.478H77.1801L77.2941 13.718H76.0401C76.0654 13.6166 76.0907 13.528 76.1161 13.452C76.1414 13.3506 76.1667 13.2493 76.1921 13.148H75.9261C75.9767 13.0213 76.0147 12.8946 76.0401 12.768C76.0907 12.616 76.1414 12.4893 76.1921 12.388H76.2301C76.2554 12.3373 76.2807 12.274 76.3061 12.198C76.3314 12.122 76.3567 12.0586 76.3821 12.008H76.3441C76.3441 11.9826 76.3694 11.9193 76.4201 11.818H76.6101C76.7114 11.5646 76.8507 11.3113 77.0281 11.058H76.2681L76.4961 10.678H77.9021C77.9274 10.6273 77.9781 10.564 78.0541 10.488H75.2801C75.3307 10.3866 75.3941 10.298 75.4701 10.222C75.5714 10.1206 75.6601 10.0193 75.7361 9.91798H76.6101C76.7367 9.79131 76.8634 9.66465 76.9901 9.53798C77.1421 9.38598 77.2814 9.25931 77.4081 9.15798H79.1561C79.3841 8.95531 79.6501 8.76531 79.9541 8.58798H80.6761C80.7774 8.51198 80.8787 8.44865 80.9801 8.39798C81.1067 8.32198 81.2207 8.25865 81.3221 8.20798H79.0801C79.3081 8.08131 79.5867 7.95465 79.9161 7.82798H80.9421C81.5247 7.59998 82.1327 7.40998 82.7661 7.25798H81.6261C82.8674 6.97931 84.1847 6.83998 85.5781 6.83998C86.9714 6.83998 88.2887 6.97931 89.5301 7.25798H90.7081C91.3414 7.40998 91.9367 7.59998 92.4941 7.82798H91.4301C91.7594 7.95465 92.0381 8.08131 92.2661 8.20798H94.5081C94.6347 8.25865 94.7487 8.32198 94.8501 8.39798C94.9767 8.44865 95.0907 8.51198 95.1921 8.58798H94.4701L95.2681 9.15798H93.5201C93.6721 9.25931 93.8114 9.38598 93.9381 9.53798C94.0901 9.66465 94.2294 9.79131 94.3561 9.91798H93.4821C93.5581 10.0193 93.6341 10.1206 93.7101 10.222C93.8114 10.298 93.8874 10.3866 93.9381 10.488H96.7501L96.8641 10.678H95.4961L95.7241 11.058H96.4841C96.6614 11.3113 96.8007 11.5646 96.9021 11.818H96.7121C96.7627 11.9193 96.7881 11.9826 96.7881 12.008H96.8641L97.0161 12.388H96.9781C97.0287 12.4893 97.0794 12.616 97.1301 12.768C97.1807 12.8946 97.2187 13.0213 97.2441 13.148H97.6241L97.7381 13.718H97.5101C97.5607 13.8193 97.5861 13.946 97.5861 14.098C97.6114 14.2246 97.6367 14.3513 97.6621 14.478H97.9661C97.9914 14.5793 98.0041 14.6806 98.0041 14.782C98.0041 14.858 98.0167 14.9466 98.0421 15.048H96.5601V15.314C96.5601 15.4406 96.5727 15.542 96.5981 15.618H95.8381V15.998H100.74ZM86.1481 14.478C86.1227 14.5793 86.0974 14.6806 86.0721 14.782C86.0721 14.858 86.0721 14.9466 86.0721 15.048H87.1361C87.1107 15.124 87.0981 15.2 87.0981 15.276C87.0981 15.352 87.0981 15.428 87.0981 15.504V15.618H87.2501V15.504C87.2501 15.428 87.2374 15.352 87.2121 15.276C87.2121 15.2 87.2121 15.124 87.2121 15.048H88.6941C88.6941 14.9466 88.6814 14.858 88.6561 14.782C88.6561 14.6806 88.6561 14.5793 88.6561 14.478H88.3521C88.3267 14.326 88.2887 14.1866 88.2381 14.06C88.2127 13.9333 88.1747 13.8193 88.1241 13.718H88.3901C88.2887 13.49 88.1367 13.3 87.9341 13.148H87.5541C87.3007 12.996 86.9714 12.92 86.5661 12.92C86.1607 12.92 85.8441 12.996 85.6161 13.148H85.8821C85.7807 13.224 85.6921 13.3126 85.6161 13.414C85.5401 13.49 85.4767 13.5913 85.4261 13.718H86.6801C86.6547 13.8193 86.6167 13.9333 86.5661 14.06C86.5407 14.1866 86.5154 14.326 86.4901 14.478H86.1481ZM88.7321 16.758H91.4301V15.998H86.5281C86.5027 15.8966 86.4901 15.77 86.4901 15.618H83.3361C83.3361 15.77 83.3234 15.8966 83.2981 15.998H83.7921V16.758H86.1101V17.138H85.2741V17.518H84.8181V17.708H83.9061C83.9061 17.8093 83.9061 17.9106 83.9061 18.012C83.9314 18.088 83.9441 18.1766 83.9441 18.278H86.9461V17.708H88.6561V17.518H87.1741V17.138H88.7321V16.758ZM88.1241 18.658V18.468H83.9821V18.658H84.1721V18.696C84.1721 18.7213 84.1721 18.7466 84.1721 18.772C84.1974 18.7973 84.2101 18.8226 84.2101 18.848H84.8561C84.8814 18.9746 84.8941 19.1013 84.8941 19.228C84.8941 19.3546 84.9067 19.4813 84.9321 19.608H84.5521C84.6027 19.9373 84.6534 20.1906 84.7041 20.368H85.1221C85.1727 20.52 85.2234 20.6466 85.2741 20.748H85.5401C85.7681 21.1026 86.1987 21.28 86.8321 21.28C87.4654 21.28 87.8961 21.1026 88.1241 20.748H88.2761C88.3014 20.6973 88.3267 20.6466 88.3521 20.596C88.3774 20.52 88.4027 20.444 88.4281 20.368H87.8581C87.8834 20.2413 87.9087 20.1273 87.9341 20.026C87.9594 19.8993 87.9847 19.76 88.0101 19.608H88.2761C88.3014 19.4813 88.3141 19.3546 88.3141 19.228C88.3141 19.1013 88.3267 18.9746 88.3521 18.848H88.0101V18.658H88.1241Z" fill="white"/>
<path d="M129.795 6.30798C129.846 6.40931 129.896 6.51065 129.947 6.61198C129.998 6.68798 130.036 6.77665 130.061 6.87798H128.655C128.706 6.97931 128.756 7.10598 128.807 7.25798C128.858 7.38465 128.908 7.51131 128.959 7.63798H122.993L123.221 8.39798H126.299L126.413 8.96798H125.995C126.02 9.01865 126.033 9.08198 126.033 9.15798C126.033 9.23398 126.046 9.29731 126.071 9.34798H125.045L125.083 9.72798H125.881C125.881 9.82931 125.881 9.93065 125.881 10.032C125.906 10.108 125.919 10.1966 125.919 10.298H127.325C127.35 10.3993 127.363 10.488 127.363 10.564C127.363 10.64 127.363 10.7286 127.363 10.83V10.868H123.791C123.791 10.9946 123.791 11.1213 123.791 11.248C123.816 11.3746 123.829 11.5013 123.829 11.628H124.627C124.627 11.7546 124.627 11.8813 124.627 12.008C124.652 12.1346 124.665 12.2613 124.665 12.388H126.033V12.578H125.501V13.338H125.653V13.908H127.895V14.668H125.767V15.048H125.539C125.539 15.0986 125.539 15.162 125.539 15.238C125.539 15.314 125.526 15.3773 125.501 15.428H124.817V16.188H124.893C124.868 16.264 124.855 16.3653 124.855 16.492V16.568H126.261C126.261 16.6693 126.248 16.7706 126.223 16.872C126.223 16.948 126.223 17.0366 126.223 17.138H126.793C126.793 17.2646 126.78 17.3913 126.755 17.518C126.755 17.6446 126.742 17.7713 126.717 17.898H125.881C125.856 17.9486 125.843 18.012 125.843 18.088C125.843 18.164 125.83 18.2273 125.805 18.278H121.245C121.245 18.3793 121.22 18.506 121.169 18.658H125.159C125.108 18.81 125.083 18.9366 125.083 19.038H125.653C125.628 19.1393 125.602 19.2406 125.577 19.342C125.577 19.418 125.552 19.5066 125.501 19.608L125.387 19.988H124.285L124.209 20.178H125.995C125.944 20.2793 125.919 20.3426 125.919 20.368H124.779L124.703 20.558H124.665C124.614 20.6846 124.564 20.8113 124.513 20.938C124.462 21.0646 124.399 21.1913 124.323 21.318H123.753L123.335 22.078H123.981L123.753 22.458H123.791C123.74 22.5086 123.69 22.572 123.639 22.648C123.588 22.724 123.538 22.7873 123.487 22.838H123.221C123.145 22.914 123.094 22.9773 123.069 23.028C122.993 23.1293 122.917 23.2306 122.841 23.332C122.765 23.408 122.676 23.4966 122.575 23.598H122.461C122.334 23.7246 122.195 23.8513 122.043 23.978C121.916 24.1046 121.777 24.2313 121.625 24.358H121.967L121.169 24.928H121.207C121.004 25.0546 120.789 25.1813 120.561 25.308C120.333 25.4346 120.092 25.5613 119.839 25.688H119.801C119.548 25.8146 119.231 25.9413 118.851 26.068H118.889C118.382 26.2453 117.85 26.3973 117.293 26.524C116.736 26.6506 116.166 26.752 115.583 26.828H116.381C115.976 26.8786 115.558 26.9166 115.127 26.942C114.696 26.9673 114.253 26.98 113.797 26.98H102.663C102.435 26.98 102.258 26.9293 102.131 26.828H101.333C101.08 26.676 100.928 26.4226 100.877 26.068H100.839V25.688H100.915V24.928H100.839V24.358H100.535V23.598H100.649V23.028H100.611V22.838H100.915V22.458H100.877V22.078H100.193V21.318H100.801V20.558H100.839V20.368H101.979V20.178H100.231V19.988H101.333V19.038H100.801V18.658H100.763V18.278H101.751V17.898H97.3809V17.138H97.2289V16.568H97.7229V16.188H99.2809V15.428H100.269V15.048H100.839V14.668H101.447V13.908H102.321V13.338H103.157V12.578H100.611V12.388H99.7749V11.628H98.1029V10.868H102.435V10.298H99.0909V9.72798H100.915V9.34798H100.839V8.96798H100.535V8.39798H98.9009V7.63798H104.829V6.87798H106.235V6.30798H99.3949V5.54798H103.879V5.35798H100.345V5.16798H107.527V4.40798H106.615V4.21798H97.5709V3.45798H98.6729V2.88798H101.029V2.69798H102.283V2.31798H101.599V2.12798H100.801V1.74798H100.877V1.40598C100.877 1.35531 100.877 1.31731 100.877 1.29198C100.902 1.24131 100.915 1.20331 100.915 1.17798H101.067C101.194 0.645979 101.536 0.379979 102.093 0.379979H113.037C114.988 0.379979 116.761 0.645979 118.357 1.17798H118.205C118.661 1.32998 119.13 1.51998 119.611 1.74798H119.535C119.662 1.79865 119.788 1.86198 119.915 1.93798C120.067 1.98865 120.194 2.05198 120.295 2.12798H121.093L121.435 2.31798H122.081C122.208 2.36865 122.309 2.43198 122.385 2.50798C122.486 2.58398 122.588 2.64731 122.689 2.69798H121.435C121.486 2.72331 121.536 2.74865 121.587 2.77398C121.638 2.79931 121.676 2.83731 121.701 2.88798H119.345L120.067 3.45798H118.927C119.206 3.68598 119.459 3.93931 119.687 4.21798H128.731C128.756 4.24331 128.782 4.26865 128.807 4.29398C128.832 4.31931 128.858 4.35731 128.883 4.40798H129.833C129.934 4.50931 130.036 4.63598 130.137 4.78798C130.238 4.91465 130.327 5.04131 130.403 5.16798H123.221C123.246 5.19331 123.272 5.21865 123.297 5.24398C123.322 5.26931 123.348 5.30731 123.373 5.35798H126.907L127.021 5.54798H122.537C122.714 5.80131 122.854 6.05465 122.955 6.30798H129.795ZM116.381 8.96798C116.229 8.73998 116.039 8.54998 115.811 8.39798H112.733C112.176 7.99265 111.492 7.78998 110.681 7.78998H108.401V8.39798H110.035V8.96798H110.339V9.34798H110.415V9.72798H108.591V10.298H111.935V10.868H107.603V11.628H109.275V12.388H110.111V12.578H112.657V13.338H111.821V13.908H110.947V14.668H110.339V15.048H109.769V15.428H108.781V16.188H107.223V16.568H106.729V17.138H106.881V17.898H111.251V18.278H110.263V18.658H110.301V19.038H110.833V19.57H113.303C114.038 19.57 114.658 19.3926 115.165 19.038H114.557C114.633 18.9873 114.709 18.9366 114.785 18.886C114.861 18.81 114.924 18.734 114.975 18.658H111.023C111.074 18.6073 111.124 18.5566 111.175 18.506C111.226 18.43 111.264 18.354 111.289 18.278H115.849C115.9 18.2273 115.938 18.1766 115.963 18.126C115.988 18.05 116.014 17.974 116.039 17.898H116.913C116.964 17.7713 117.002 17.6446 117.027 17.518C117.052 17.3913 117.078 17.2646 117.103 17.138H116.533C116.558 17.0366 116.571 16.948 116.571 16.872C116.571 16.7706 116.584 16.6693 116.609 16.568H115.203V16.492C115.203 16.4413 115.203 16.3906 115.203 16.34C115.228 16.2893 115.241 16.2386 115.241 16.188H115.165C115.165 16.0613 115.165 15.9346 115.165 15.808C115.165 15.656 115.178 15.5293 115.203 15.428H115.887V15.048H116.115L116.153 14.668H118.281V13.908H116.039V13.338H115.887V12.578H116.419V12.388H115.013V11.628H114.177C114.177 11.5013 114.177 11.3746 114.177 11.248C114.177 11.1213 114.164 10.9946 114.139 10.868H117.711V10.83C117.711 10.7286 117.698 10.64 117.673 10.564C117.673 10.4626 117.673 10.374 117.673 10.298H116.267C116.242 10.1966 116.216 10.108 116.191 10.032C116.166 9.93065 116.14 9.82931 116.115 9.72798H115.317C115.292 9.65198 115.266 9.58865 115.241 9.53798C115.216 9.46198 115.19 9.39865 115.165 9.34798H116.191C116.166 9.27198 116.128 9.20865 116.077 9.15798C116.052 9.08198 116.014 9.01865 115.963 8.96798H116.381ZM153.25 15.998C153.275 16.1246 153.288 16.2513 153.288 16.378C153.288 16.5046 153.288 16.6313 153.288 16.758H150.59V17.138H149.032V17.518H150.514V17.708H148.804V18.278H147.854V18.468H149.982C149.982 18.544 149.969 18.6073 149.944 18.658H149.83V18.848H150.172V18.886C150.172 18.9873 150.159 19.1013 150.134 19.228C150.134 19.3546 150.121 19.4813 150.096 19.608H149.83L149.716 20.368H150.286C150.286 20.4693 150.261 20.596 150.21 20.748H150.096C150.071 20.8493 150.045 20.9506 150.02 21.052C149.995 21.128 149.969 21.2166 149.944 21.318H150.248C150.223 21.4446 150.185 21.5713 150.134 21.698C150.083 21.8246 150.033 21.9513 149.982 22.078H149.412L149.26 22.458H149.336C149.285 22.5593 149.26 22.6226 149.26 22.648H149.108C149.007 22.9013 148.867 23.1546 148.69 23.408H148.766C148.741 23.4586 148.703 23.522 148.652 23.598C148.601 23.674 148.551 23.7373 148.5 23.788H148.462L148.006 24.358C147.981 24.3833 147.955 24.4086 147.93 24.434C147.905 24.4593 147.867 24.4973 147.816 24.548H147.626C147.525 24.6493 147.423 24.7506 147.322 24.852C147.221 24.928 147.107 25.0166 146.98 25.118H145.84L145.042 25.688H145.194C145.143 25.7133 145.093 25.7386 145.042 25.764C144.991 25.7893 144.941 25.8273 144.89 25.878H144.624C144.573 25.9033 144.51 25.9286 144.434 25.954C144.358 25.9793 144.295 26.0173 144.244 26.068H146.296C146.169 26.144 146.03 26.22 145.878 26.296C145.726 26.3466 145.574 26.3973 145.422 26.448H144.776C144.599 26.524 144.409 26.6 144.206 26.676C144.003 26.7266 143.801 26.7773 143.598 26.828H143.75C143.446 26.904 143.129 26.9673 142.8 27.018C142.471 27.094 142.129 27.1573 141.774 27.208H142.952C142.547 27.2586 142.129 27.2966 141.698 27.322C141.267 27.3473 140.824 27.36 140.368 27.36C139.887 27.36 139.431 27.3473 139 27.322C138.595 27.2966 138.177 27.2586 137.746 27.208H136.53C136.201 27.1573 135.859 27.094 135.504 27.018C135.175 26.9673 134.858 26.904 134.554 26.828H134.44C134.237 26.7773 134.035 26.7266 133.832 26.676C133.655 26.6 133.465 26.524 133.262 26.448H133.87C133.743 26.3973 133.604 26.3466 133.452 26.296C133.3 26.22 133.161 26.144 133.034 26.068H130.982L130.64 25.878H130.906L130.564 25.688H130.412C130.108 25.4853 129.842 25.2953 129.614 25.118H130.754C130.653 25.0166 130.551 24.928 130.45 24.852C130.349 24.7506 130.247 24.6493 130.146 24.548H130.336C130.311 24.4973 130.285 24.4593 130.26 24.434C130.235 24.4086 130.197 24.3833 130.146 24.358L129.69 23.788H129.728L129.462 23.408H129.386C129.209 23.1546 129.069 22.9013 128.968 22.648H129.082C129.031 22.5466 129.006 22.4833 129.006 22.458H128.892L128.74 22.078H129.31C129.285 21.9513 129.247 21.8246 129.196 21.698C129.145 21.5713 129.095 21.4446 129.044 21.318H128.74C128.715 21.2166 128.689 21.128 128.664 21.052C128.639 20.9506 128.613 20.8493 128.588 20.748H128.36L128.246 20.368H127.866L127.752 19.608H128.132C128.107 19.4813 128.081 19.3546 128.056 19.228C128.056 19.1013 128.056 18.9873 128.056 18.886V18.848H127.372V18.658H127.182C127.182 18.6073 127.169 18.5693 127.144 18.544C127.144 18.5186 127.144 18.4933 127.144 18.468H129.272C129.272 18.392 129.259 18.3286 129.234 18.278H127.106V17.708H128.018V17.518H128.474V17.138H129.272V16.758H126.954C126.954 16.6313 126.954 16.5046 126.954 16.378C126.954 16.2513 126.967 16.1246 126.992 15.998H126.498V15.618H130.26C130.285 15.542 130.298 15.4406 130.298 15.314V15.048H129.272C129.272 14.9466 129.272 14.858 129.272 14.782C129.297 14.6806 129.31 14.5793 129.31 14.478H129.69L129.804 13.718H128.55C128.575 13.6166 128.601 13.528 128.626 13.452C128.651 13.3506 128.677 13.2493 128.702 13.148H128.436C128.487 13.0213 128.525 12.8946 128.55 12.768C128.601 12.616 128.651 12.4893 128.702 12.388H128.74C128.765 12.3373 128.791 12.274 128.816 12.198C128.841 12.122 128.867 12.0586 128.892 12.008H128.854C128.854 11.9826 128.879 11.9193 128.93 11.818H129.12C129.221 11.5646 129.361 11.3113 129.538 11.058H128.778L129.006 10.678H130.412C130.437 10.6273 130.488 10.564 130.564 10.488H127.79C127.841 10.3866 127.904 10.298 127.98 10.222C128.081 10.1206 128.17 10.0193 128.246 9.91798H129.12C129.247 9.79131 129.373 9.66465 129.5 9.53798C129.652 9.38598 129.791 9.25931 129.918 9.15798H131.666C131.894 8.95531 132.16 8.76531 132.464 8.58798H133.186C133.287 8.51198 133.389 8.44865 133.49 8.39798C133.617 8.32198 133.731 8.25865 133.832 8.20798H131.59C131.818 8.08131 132.097 7.95465 132.426 7.82798H133.452C134.035 7.59998 134.643 7.40998 135.276 7.25798H134.136C135.377 6.97931 136.695 6.83998 138.088 6.83998C139.481 6.83998 140.799 6.97931 142.04 7.25798H143.218C143.851 7.40998 144.447 7.59998 145.004 7.82798H143.94C144.269 7.95465 144.548 8.08131 144.776 8.20798H147.018C147.145 8.25865 147.259 8.32198 147.36 8.39798C147.487 8.44865 147.601 8.51198 147.702 8.58798H146.98L147.778 9.15798H146.03C146.182 9.25931 146.321 9.38598 146.448 9.53798C146.6 9.66465 146.739 9.79131 146.866 9.91798H145.992C146.068 10.0193 146.144 10.1206 146.22 10.222C146.321 10.298 146.397 10.3866 146.448 10.488H149.26L149.374 10.678H148.006L148.234 11.058H148.994C149.171 11.3113 149.311 11.5646 149.412 11.818H149.222C149.273 11.9193 149.298 11.9826 149.298 12.008H149.374L149.526 12.388H149.488C149.539 12.4893 149.589 12.616 149.64 12.768C149.691 12.8946 149.729 13.0213 149.754 13.148H150.134L150.248 13.718H150.02C150.071 13.8193 150.096 13.946 150.096 14.098C150.121 14.2246 150.147 14.3513 150.172 14.478H150.476C150.501 14.5793 150.514 14.6806 150.514 14.782C150.514 14.858 150.527 14.9466 150.552 15.048H149.07V15.314C149.07 15.4406 149.083 15.542 149.108 15.618H148.348V15.998H153.25ZM138.658 14.478C138.633 14.5793 138.607 14.6806 138.582 14.782C138.582 14.858 138.582 14.9466 138.582 15.048H139.646C139.621 15.124 139.608 15.2 139.608 15.276C139.608 15.352 139.608 15.428 139.608 15.504V15.618H139.76V15.504C139.76 15.428 139.747 15.352 139.722 15.276C139.722 15.2 139.722 15.124 139.722 15.048H141.204C141.204 14.9466 141.191 14.858 141.166 14.782C141.166 14.6806 141.166 14.5793 141.166 14.478H140.862C140.837 14.326 140.799 14.1866 140.748 14.06C140.723 13.9333 140.685 13.8193 140.634 13.718H140.9C140.799 13.49 140.647 13.3 140.444 13.148H140.064C139.811 12.996 139.481 12.92 139.076 12.92C138.671 12.92 138.354 12.996 138.126 13.148H138.392C138.291 13.224 138.202 13.3126 138.126 13.414C138.05 13.49 137.987 13.5913 137.936 13.718H139.19C139.165 13.8193 139.127 13.9333 139.076 14.06C139.051 14.1866 139.025 14.326 139 14.478H138.658ZM141.242 16.758H143.94V15.998H139.038C139.013 15.8966 139 15.77 139 15.618H135.846C135.846 15.77 135.833 15.8966 135.808 15.998H136.302V16.758H138.62V17.138H137.784V17.518H137.328V17.708H136.416C136.416 17.8093 136.416 17.9106 136.416 18.012C136.441 18.088 136.454 18.1766 136.454 18.278H139.456V17.708H141.166V17.518H139.684V17.138H141.242V16.758ZM140.634 18.658V18.468H136.492V18.658H136.682V18.696C136.682 18.7213 136.682 18.7466 136.682 18.772C136.707 18.7973 136.72 18.8226 136.72 18.848H137.366C137.391 18.9746 137.404 19.1013 137.404 19.228C137.404 19.3546 137.417 19.4813 137.442 19.608H137.062C137.113 19.9373 137.163 20.1906 137.214 20.368H137.632C137.683 20.52 137.733 20.6466 137.784 20.748H138.05C138.278 21.1026 138.709 21.28 139.342 21.28C139.975 21.28 140.406 21.1026 140.634 20.748H140.786C140.811 20.6973 140.837 20.6466 140.862 20.596C140.887 20.52 140.913 20.444 140.938 20.368H140.368C140.393 20.2413 140.419 20.1273 140.444 20.026C140.469 19.8993 140.495 19.76 140.52 19.608H140.786C140.811 19.4813 140.824 19.3546 140.824 19.228C140.824 19.1013 140.837 18.9746 140.862 18.848H140.52V18.658H140.634ZM174.173 14.668H176.757C176.757 14.6933 176.744 14.7186 176.719 14.744C176.693 14.7693 176.668 14.8073 176.643 14.858H175.769C175.566 15.1113 175.287 15.238 174.933 15.238H167.523C167.168 15.238 166.889 15.1113 166.687 14.858H167.561L167.447 14.668H164.825L164.711 14.478C164.685 14.3766 164.622 14.25 164.521 14.098H163.875C163.723 13.8193 163.558 13.6293 163.381 13.528H164.331C164.128 13.4013 163.887 13.338 163.609 13.338C163.305 13.338 163.051 13.4013 162.849 13.528H162.051C161.848 13.6293 161.683 13.8193 161.557 14.098H161.215C161.164 14.1993 161.113 14.326 161.063 14.478H163.115C163.089 14.5286 163.077 14.592 163.077 14.668H164.103C164.077 14.7186 164.065 14.782 164.065 14.858H165.319C165.293 14.9086 165.281 14.972 165.281 15.048C165.281 15.124 165.268 15.1873 165.243 15.238H165.395V15.428H163.913V15.808H159.163V15.998H166.459C166.433 16.1246 166.421 16.2513 166.421 16.378C166.421 16.5046 166.421 16.6313 166.421 16.758H159.695V16.948H162.393V17.138H161.671V17.898H159.619C159.619 17.9993 159.619 18.1006 159.619 18.202C159.619 18.278 159.631 18.3666 159.657 18.468V18.848H161.937C161.937 19.0253 161.949 19.152 161.975 19.228H159.885C159.935 19.5573 159.986 19.8106 160.037 19.988H159.619C159.771 20.3426 159.986 20.596 160.265 20.748H161.519C161.721 20.824 161.937 20.862 162.165 20.862C162.443 20.862 162.671 20.824 162.849 20.748H163.381C163.609 20.6213 163.824 20.368 164.027 19.988H163.001L163.115 19.722C163.165 19.6206 163.216 19.532 163.267 19.456C163.343 19.3546 163.406 19.2786 163.457 19.228H166.117C166.345 19.0506 166.598 18.962 166.877 18.962H174.287C174.54 18.962 174.781 19.0506 175.009 19.228H172.349C172.602 19.4306 172.703 19.684 172.653 19.988H173.679C173.653 20.0893 173.628 20.2033 173.603 20.33C173.603 20.4566 173.577 20.596 173.527 20.748H172.957L172.843 21.128H175.275L175.199 21.318H174.401L174.325 21.508H170.107L169.993 21.698H174.591L174.173 22.458H174.553L174.439 22.648H171.589C171.513 22.7746 171.424 22.9013 171.323 23.028C171.247 23.1546 171.158 23.2813 171.057 23.408H170.373C170.347 23.4333 170.322 23.4586 170.297 23.484C170.271 23.5093 170.246 23.5473 170.221 23.598H172.843C172.817 23.6233 172.792 23.6486 172.767 23.674C172.741 23.6993 172.716 23.7373 172.691 23.788H170.791C170.765 23.8133 170.74 23.8386 170.715 23.864C170.689 23.8893 170.651 23.9273 170.601 23.978H172.197L171.817 24.358H171.627L171.437 24.548H171.893L171.437 24.928H172.121C171.994 25.0293 171.855 25.1306 171.703 25.232C171.576 25.308 171.437 25.3966 171.285 25.498H172.045L171.741 25.688H170.905L170.221 26.068H170.449C170.043 26.296 169.587 26.486 169.081 26.638H168.435C168.207 26.714 167.979 26.79 167.751 26.866C167.523 26.9166 167.295 26.9673 167.067 27.018H166.725C166.547 27.0433 166.37 27.0686 166.193 27.094C166.015 27.1446 165.838 27.1826 165.661 27.208H166.421C166.066 27.2586 165.699 27.2966 165.319 27.322C164.939 27.3473 164.546 27.36 164.141 27.36C163.761 27.36 163.393 27.3473 163.039 27.322C162.684 27.2966 162.329 27.2586 161.975 27.208H161.177C160.999 27.1826 160.822 27.1446 160.645 27.094C160.493 27.0686 160.328 27.0433 160.151 27.018H160.493C160.265 26.9673 160.037 26.9166 159.809 26.866C159.581 26.79 159.365 26.714 159.163 26.638H159.809C159.327 26.486 158.884 26.296 158.479 26.068H158.213C158.111 26.0173 157.997 25.9666 157.871 25.916C157.769 25.84 157.668 25.764 157.567 25.688H158.365L158.061 25.498H157.301L156.541 24.928H155.895C155.819 24.8773 155.743 24.814 155.667 24.738C155.591 24.662 155.527 24.5986 155.477 24.548H154.983L154.793 24.358H154.983L154.603 23.978H153.045C152.969 23.902 152.918 23.8386 152.893 23.788H154.793C154.717 23.712 154.666 23.6486 154.641 23.598H151.981C151.955 23.5473 151.905 23.484 151.829 23.408H152.513C152.411 23.2813 152.323 23.1546 152.247 23.028C152.171 22.9013 152.095 22.7746 152.019 22.648H154.869L154.755 22.458H154.375C154.299 22.3313 154.223 22.2046 154.147 22.078C154.096 21.9513 154.045 21.8246 153.995 21.698H149.435L149.359 21.508H153.577L153.501 21.318H154.299L154.223 21.128H151.791L151.677 20.748H150.423C150.397 20.6213 150.372 20.4946 150.347 20.368C150.321 20.2413 150.296 20.1146 150.271 19.988H150.651L150.537 19.228H152.627V18.848H150.347V18.658C150.321 18.5313 150.309 18.4046 150.309 18.278C150.309 18.1513 150.309 18.0246 150.309 17.898H152.361V17.138H153.083V16.948H150.385V16.758H157.111V15.998H149.853V15.808H154.603V15.428H156.085V15.238H155.933C155.958 15.1873 155.971 15.124 155.971 15.048C155.971 14.972 155.971 14.9086 155.971 14.858H154.755V14.668H153.729C153.729 14.592 153.741 14.5286 153.767 14.478H151.715C151.765 14.326 151.791 14.1993 151.791 14.098H152.171L152.285 13.528H153.083L153.311 12.768H153.387C153.412 12.6666 153.45 12.578 153.501 12.502C153.551 12.4006 153.589 12.2993 153.615 12.198H153.425C153.475 12.0713 153.526 11.9446 153.577 11.818C153.653 11.666 153.729 11.5393 153.805 11.438H153.577C153.627 11.3366 153.678 11.248 153.729 11.172C153.805 11.0706 153.881 10.9693 153.957 10.868H153.995C154.096 10.7413 154.197 10.6146 154.299 10.488C154.4 10.336 154.501 10.2093 154.603 10.108H154.641C154.793 9.90531 154.983 9.71531 155.211 9.53798H155.021L155.249 9.34798H155.173L155.401 9.15798H156.807C156.857 9.10731 156.908 9.06931 156.959 9.04398C157.009 9.01865 157.047 8.99331 157.073 8.96798H156.237C156.287 8.91731 156.338 8.87931 156.389 8.85398C156.439 8.82865 156.477 8.80331 156.503 8.77798H156.199C156.655 8.47398 157.098 8.22065 157.529 8.01798H158.289C158.441 7.94198 158.593 7.87865 158.745 7.82798C158.897 7.75198 159.049 7.68865 159.201 7.63798H158.327C158.428 7.58731 158.517 7.54931 158.593 7.52398C158.694 7.49865 158.795 7.47331 158.897 7.44798H158.859C158.985 7.39731 159.099 7.35931 159.201 7.33398C159.327 7.30865 159.441 7.28331 159.543 7.25798H159.429C160.543 6.97931 161.709 6.83998 162.925 6.83998C163.609 6.83998 164.255 6.87798 164.863 6.95398C165.471 7.02998 166.041 7.13131 166.573 7.25798H166.687C166.813 7.28331 166.927 7.30865 167.029 7.33398C167.155 7.35931 167.269 7.39731 167.371 7.44798H167.409C167.51 7.47331 167.599 7.49865 167.675 7.52398C167.776 7.54931 167.877 7.58731 167.979 7.63798H168.853C169.233 7.76465 169.549 7.89131 169.803 8.01798H169.005C169.258 8.11931 169.499 8.24598 169.727 8.39798C169.955 8.52465 170.183 8.65131 170.411 8.77798H170.715C170.765 8.80331 170.816 8.82865 170.867 8.85398C170.917 8.87931 170.955 8.91731 170.981 8.96798H171.817C171.867 8.99331 171.905 9.01865 171.931 9.04398C171.981 9.06931 172.032 9.10731 172.083 9.15798H170.677L170.905 9.34798H170.981L171.209 9.53798H171.361C171.487 9.63931 171.601 9.74065 171.703 9.84198C171.804 9.91798 171.905 10.0066 172.007 10.108H171.969C172.095 10.2346 172.209 10.3613 172.311 10.488C172.437 10.6146 172.551 10.7413 172.653 10.868H172.615C172.691 10.9693 172.767 11.0706 172.843 11.172C172.919 11.248 172.982 11.3366 173.033 11.438H173.261C173.362 11.5646 173.451 11.6913 173.527 11.818C173.603 11.9446 173.666 12.0713 173.717 12.198H173.945C173.995 12.2993 174.046 12.4006 174.097 12.502C174.147 12.578 174.185 12.6666 174.211 12.768H174.173C174.223 12.8946 174.274 13.0213 174.325 13.148C174.375 13.2746 174.413 13.4013 174.439 13.528H173.489L173.603 14.098H174.249V14.478L174.173 14.668Z" fill="#F08539"/>
</svg>
