<svg width="24" height="24" viewBox="0 0 24 24" fill="none" xmlns="http://www.w3.org/2000/svg">
<path d="M12.1017 1.00488C12.6062 1.05583 13.0001 1.48208 13.0001 2C13.0001 2.44103 12.7138 2.81337 12.3175 2.94629L10.1124 7.41699C9.88852 7.8706 9.55788 8.26325 9.14858 8.56055C8.73921 8.85789 8.26355 9.05138 7.76284 9.12402L7.76186 9.12305L3.53823 9.74121L6.59292 12.7148C6.95598 13.0681 7.22822 13.5046 7.38491 13.9863C7.54157 14.4681 7.57822 14.9812 7.49233 15.4805L6.77163 19.6826L10.5451 17.6982L10.716 17.6143C11.1193 17.4315 11.5578 17.3369 12.0021 17.3379C12.5543 17.3391 13.0012 17.7877 13.0001 18.3398C12.999 18.892 12.5503 19.3389 11.9982 19.3379C11.818 19.3375 11.6399 19.3815 11.4806 19.4658L11.4787 19.4668L6.86147 21.8955L6.8605 21.8945C6.60814 22.0274 6.32374 22.0876 6.03921 22.0674C5.75379 22.047 5.47963 21.9476 5.24819 21.7793C5.01667 21.6109 4.83697 21.3806 4.72964 21.1152C4.6492 20.9163 4.61213 20.7032 4.61928 20.4902L4.64077 20.2773L5.52163 15.1416L5.53628 15.0068C5.54298 14.8713 5.52476 14.7353 5.48257 14.6055C5.42633 14.4325 5.32875 14.2753 5.19839 14.1484L1.46206 10.5117L1.46303 10.5107C1.25847 10.3121 1.11315 10.0609 1.04409 9.78418C0.97472 9.50613 0.983962 9.21399 1.07241 8.94141L1.15249 8.74316C1.24601 8.55132 1.37948 8.38048 1.54409 8.24219C1.76341 8.05796 2.03002 7.93859 2.31362 7.89844L7.47475 7.14453H7.47573C7.65534 7.11846 7.82593 7.04899 7.9728 6.94238C8.11978 6.83562 8.23909 6.69417 8.31948 6.53125L10.6281 1.85254L10.6291 1.85156C10.7555 1.5961 10.9504 1.3809 11.1925 1.23047C11.4348 1.07999 11.7149 1.00003 12.0001 1L12.1017 1.00488ZM5.92788 20.126L5.93081 20.125L5.93374 20.123C5.93183 20.124 5.92978 20.125 5.92788 20.126Z" fill="#F08539"/>
</svg>
